999
dxfrw 0.6.3
  0
SECTION
  2
HEADER
  9
$ACADVER
  1
AC1021
  9
$DWGCODEPAGE
  3
ANSI_1252
  9
$INSBASE
 10
0
 20
0
 30
0
  9
$EXTMIN
 10
0
 20
0
 30
0
  9
$EXTMAX
 10
94.15743109347871
 20
29.60696120569487
 30
0
  9
$LIMMIN
 10
0
 20
0
  9
$LIMMAX
 10
420
 20
297
  9
$ORTHOMODE
 70
    0
  9
$REGENMODE
 70
    1
  9
$FILLMODE
 70
    1
  9
$QTEXTMODE
 70
    0
  9
$MIRRTEXT
 70
    0
  9
$LTSCALE
 40
1
  9
$ATTMODE
 70
    0
  9
$TEXTSIZE
 40
2.5
  9
$TRACEWID
 40
15.68
  9
$TEXTSTYLE
  7
STANDARD
  9
$CLAYER
  8
lay1
  9
$CELTYPE
  6
BYLAYER
  9
$CECOLOR
 62
  256
  9
$CELTSCALE
 40
1
  9
$DISPSILH
 70
    0
  9
$DIMSCALE
 40
0.5
  9
$DIMASZ
 40
0.5
  9
$DIMEXO
 40
0.625
  9
$DIMDLI
 40
3.75
  9
$DIMRND
 40
0
  9
$DIMDLE
 40
0
  9
$DIMEXE
 40
1.25
  9
$DIMTP
 40
0
  9
$DIMTM
 40
0
  9
$DIMTXT
 40
0.5
  9
$DIMCEN
 40
2.5
  9
$DIMTSZ
 40
0
  9
$DIMTOL
 70
    0
  9
$DIMLIM
 70
    0
  9
$DIMTIH
 70
    0
  9
$DIMTOH
 70
    0
  9
$DIMSE1
 70
    0
  9
$DIMSE2
 70
    0
  9
$DIMTAD
 70
    1
  9
$DIMZIN
 70
    8
  9
$DIMBLK
  1

  9
$DIMASO
 70
    1
  9
$DIMSHO
 70
    1
  9
$DIMPOST
  1

  9
$DIMAPOST
  1

  9
$DIMALT
 70
    0
  9
$DIMALTD
 70
    3
  9
$DIMALTF
 40
0.03937
  9
$DIMLFAC
 40
1
  9
$DIMTOFL
 70
    1
  9
$DIMTVP
 40
0
  9
$DIMTIX
 70
    0
  9
$DIMSOXD
 70
    0
  9
$DIMSAH
 70
    0
  9
$DIMBLK1
  1

  9
$DIMBLK2
  1

  9
$DIMSTYLE
  2
STANDARD
  9
$DIMCLRD
 70
    0
  9
$DIMCLRE
 70
    0
  9
$DIMCLRT
 70
    0
  9
$DIMTFAC
 40
1
  9
$DIMGAP
 40
0.55
  9
$DIMJUST
 70
    0
  9
$DIMSD1
 70
    0
  9
$DIMSD2
 70
    0
  9
$DIMTOLJ
 70
    0
  9
$DIMTZIN
 70
    8
  9
$DIMALTZ
 70
    0
  9
$DIMALTTZ
 70
    0
  9
$DIMUPT
 70
    0
  9
$DIMDEC
 70
    2
  9
$DIMTDEC
 70
    2
  9
$DIMALTU
 70
    2
  9
$DIMALTTD
 70
    3
  9
$DIMTXSTY
  7
standard
  9
$DIMAUNIT
 70
    0
  9
$DIMADEC
 70
    0
  9
$DIMALTRND
 40
0
  9
$DIMAZIN
 70
    0
  9
$DIMDSEP
 70
    0
  9
$DIMATFIT
 70
    3
  9
$DIMFRAC
 70
    0
  9
$DIMLDRBLK
  1
STANDARD
  9
$DIMLUNIT
 70
    2
  9
$DIMLWD
 70
   -3
  9
$DIMLWE
 70
   -2
  9
$DIMTMOVE
 70
    0
  9
$DIMFXL
 40
1
  9
$DIMFXLON
 70
    0
  9
$DIMJOGANG
 40
0.7854
  9
$DIMTFILL
 70
    0
  9
$DIMTFILLCLR
 70
    0
  9
$DIMARCSYM
 70
    0
  9
$DIMLTYPE
  6

  9
$DIMLTEX1
  6

  9
$DIMLTEX2
  6

  9
$LUNITS
 70
    2
  9
$LUPREC
 70
    4
  9
$SKETCHINC
 40
1
  9
$FILLETRAD
 40
0
  9
$AUNITS
 70
    0
  9
$AUPREC
 70
    2
  9
$MENU
  1
.
  9
$ELEVATION
 40
0
  9
$PELEVATION
 40
0
  9
$THICKNESS
 40
0
  9
$LIMCHECK
 70
    0
  9
$CHAMFERA
 40
0
  9
$CHAMFERB
 40
0
  9
$CHAMFERC
 40
0
  9
$CHAMFERD
 40
0
  9
$SKPOLY
 70
    0
  9
$USRTIMER
 70
    1
  9
$ANGBASE
 50
0
  9
$ANGDIR
 70
    0
  9
$PDMODE
 70
   34
  9
$PDSIZE
 40
0
  9
$PLINEWID
 40
0
  9
$SPLFRAME
 70
    0
  9
$SPLINETYPE
 70
    2
  9
$SPLINESEGS
 70
    8
  9
$HANDSEED
  5
20000
  9
$SURFTAB1
 70
    6
  9
$SURFTAB2
 70
    6
  9
$SURFTYPE
 70
    6
  9
$SURFU
 70
    6
  9
$SURFV
 70
    6
  9
$UCSBASE
  2

  9
$UCSNAME
  2

  9
$UCSORG
 10
0
 20
0
 30
0
  9
$UCSXDIR
 10
1
 20
0
 30
0
  9
$UCSYDIR
 10
0
 20
1
 30
0
  9
$UCSORTHOREF
  2

  9
$UCSORTHOVIEW
 70
    0
  9
$UCSORGTOP
 10
0
 20
0
 30
0
  9
$UCSORGBOTTOM
 10
0
 20
0
 30
0
  9
$UCSORGLEFT
 10
0
 20
0
 30
0
  9
$UCSORGRIGHT
 10
0
 20
0
 30
0
  9
$UCSORGFRONT
 10
0
 20
0
 30
0
  9
$UCSORGBACK
 10
0
 20
0
 30
0
  9
$PUCSBASE
  2

  9
$PUCSNAME
  2

  9
$PUCSORG
 10
0
 20
0
 30
0
  9
$PUCSXDIR
 10
1
 20
0
 30
0
  9
$PUCSYDIR
 10
0
 20
1
 30
0
  9
$PUCSORTHOREF
  2

  9
$PUCSORTHOVIEW
 70
    0
  9
$PUCSORGTOP
 10
0
 20
0
 30
0
  9
$PUCSORGBOTTOM
 10
0
 20
0
 30
0
  9
$PUCSORGLEFT
 10
0
 20
0
 30
0
  9
$PUCSORGRIGHT
 10
0
 20
0
 30
0
  9
$PUCSORGFRONT
 10
0
 20
0
 30
0
  9
$PUCSORGBACK
 10
0
 20
0
 30
0
  9
$USERI1
 70
    0
  9
$USERI2
 70
    0
  9
$USERI3
 70
    0
  9
$USERI4
 70
    0
  9
$USERI5
 70
    0
  9
$USERR1
 40
0
  9
$USERR2
 40
0
  9
$USERR3
 40
0
  9
$USERR4
 40
0
  9
$USERR5
 40
0
  9
$WORLDVIEW
 70
    1
  9
$SHADEDGE
 70
    3
  9
$SHADEDIF
 70
   70
  9
$TILEMODE
 70
    1
  9
$MAXACTVP
 70
   64
  9
$PINSBASE
 10
0
 20
115.4836900763399
 30
0
  9
$PLIMCHECK
 70
    0
  9
$PEXTMIN
 10
0
 20
0
 30
0
  9
$PEXTMAX
 10
0
 20
0
 30
0
  9
$GRIDMODE
 70
    1
  9
$SNAPSTYLE
 70
    0
  9
$GRIDUNIT
 10
0
 20
0
  9
$PLIMMIN
 10
0
 20
0
  9
$PLIMMAX
 10
210
 20
297
  9
$UNITMODE
 70
    0
  9
$VISRETAIN
 70
    1
  9
$PLINEGEN
 70
    0
  9
$PSLTSCALE
 70
    1
  9
$TREEDEPTH
 70
 3020
  9
$CMLSTYLE
  2
Standard
  9
$CMLJUST
 70
    0
  9
$CMLSCALE
 40
20
  9
$PROXYGRAPHICS
 70
    1
  9
$MEASUREMENT
 70
    1
  9
$CELWEIGHT
370
   -1
  9
$ENDCAPS
280
    0
  9
$JOINSTYLE
280
    0
  9
$LWDISPLAY
290
    0
  9
$INSUNITS
 70
    4
  9
$HYPERLINKBASE
  1

  9
$STYLESHEET
  1

  9
$XEDIT
290
    1
  9
$CEPSNTYPE
380
    0
  9
$PSTYLEMODE
290
    1
  9
$EXTNAMES
290
    1
  9
$PSVPSCALE
 40
2.23031
  9
$OLESTARTUP
290
    0
  9
$SORTENTS
280
  127
  9
$INDEXCTL
280
    0
  9
$HIDETEXT
280
    1
  9
$XCLIPFRAME
290
    0
  9
$HALOGAP
280
    0
  9
$OBSCOLOR
 70
  257
  9
$OBSLTYPE
280
    0
  9
$INTERSECTIONDISPLAY
280
    0
  9
$INTERSECTIONCOLOR
 70
  257
  9
$DIMASSOC
280
    1
  9
$PROJECTNAME
  1

  9
$CAMERADISPLAY
290
    0
  9
$LENSLENGTH
 40
50
  9
$CAMERAHEIGHT
 40
0
  9
$STEPSPERSEC
 40
2
  9
$STEPSIZE
 40
50
  9
$3DDWFPREC
 40
2
  9
$PSOLWIDTH
 40
5
  9
$PSOLHEIGHT
 40
80
  9
$LOFTANG1
 40
1.570796326794897
  9
$LOFTANG2
 40
1.570796326794897
  9
$LOFTMAG1
 40
0
  9
$LOFTMAG2
 40
0
  9
$LOFTPARAM
 70
    7
  9
$LOFTNORMALS
280
    1
  9
$LATITUDE
 40
1
  9
$LONGITUDE
 40
1
  9
$NORTHDIRECTION
 40
0
  9
$TIMEZONE
 70
-8000
  9
$LIGHTGLYPHDISPLAY
280
    1
  9
$TILEMODELIGHTSYNCH
280
    1
  9
$SOLIDHIST
280
    1
  9
$SHOWHIST
280
    1
  9
$DWFFRAME
280
    2
  9
$DGNFRAME
280
    0
  9
$REALWORLDSCALE
290
    1
  9
$INTERFERECOLOR
 62
    1
  9
$CSHADOW
280
    0
  9
$SHADOWPLANELOCATION
 40
0
  0
ENDSEC
  0
SECTION
  2
CLASSES
  0
ENDSEC
  0
SECTION
  2
TABLES
  0
TABLE
  2
VPORT
  5
8
330
0
100
AcDbSymbolTable
 70
    1
  0
VPORT
  5
31
330
2
100
AcDbSymbolTableRecord
100
AcDbViewportTableRecord
  2
*ACTIVE
 70
    0
 10
0
 20
0
 11
1
 21
1
 12
52.25503029110924
 22
14.86968538731132
 13
0
 23
0
 14
10
 24
10
 15
10
 25
10
 16
0
 26
0
 36
1
 17
0
 27
0
 37
0
 40
23.07364973893135
 41
1.713725490196078
 42
50
 43
0
 44
0
 50
0
 51
0
 71
    0
 72
  100
 73
    1
 74
    3
 75
    0
 76
    1
 77
    0
 78
    0
281
    0
 65
    1
110
0
120
0
130
0
111
1
121
0
131
0
112
0
122
1
132
0
 79
    0
146
0
348
10020
 60
    7
 61
    5
292
1
282
    1
141
0
142
0
 63
  250
421
3358443
  0
ENDTAB
  0
TABLE
  2
LTYPE
  5
5
330
0
100
AcDbSymbolTable
 70
    4
  0
LTYPE
  5
14
330
5
100
AcDbSymbolTableRecord
100
AcDbLinetypeTableRecord
  2
ByBlock
 70
    0
  3

 72
   65
 73
    0
 40
0
  0
LTYPE
  5
15
330
5
100
AcDbSymbolTableRecord
100
AcDbLinetypeTableRecord
  2
ByLayer
 70
    0
  3

 72
   65
 73
    0
 40
0
  0
LTYPE
  5
16
330
5
100
AcDbSymbolTableRecord
100
AcDbLinetypeTableRecord
  2
Continuous
 70
    0
  3
Solid line
 72
   65
 73
    0
 40
0
  0
LTYPE
  5
32
330
5
100
AcDbSymbolTableRecord
100
AcDbLinetypeTableRecord
  2
DOT
 70
    0
  3
Dot . . . . . . . . . . . . . . . . . . . . . .
 72
   65
 73
    2
 40
6.35
 49
0
 74
    0
 49
-6.35
 74
    0
  0
LTYPE
  5
33
330
5
100
AcDbSymbolTableRecord
100
AcDbLinetypeTableRecord
  2
DOTTINY
 70
    0
  3
Dot (.15x) .....................................
 72
   65
 73
    2
 40
0.9525
 49
0
 74
    0
 49
-0.9525
 74
    0
  0
LTYPE
  5
34
330
5
100
AcDbSymbolTableRecord
100
AcDbLinetypeTableRecord
  2
DOT2
 70
    0
  3
Dot (.5x) .....................................
 72
   65
 73
    2
 40
3.175
 49
0
 74
    0
 49
-3.175
 74
    0
  0
LTYPE
  5
35
330
5
100
AcDbSymbolTableRecord
100
AcDbLinetypeTableRecord
  2
DOTX2
 70
    0
  3
Dot (2x) .  .  .  .  .  .  .  .  .  .  .  .  .
 72
   65
 73
    2
 40
12.7
 49
0
 74
    0
 49
-12.7
 74
    0
  0
LTYPE
  5
36
330
5
100
AcDbSymbolTableRecord
100
AcDbLinetypeTableRecord
  2
DASHED
 70
    0
  3
Dashed _ _ _ _ _ _ _ _ _ _ _ _ _ _ _ _ _
 72
   65
 73
    2
 40
19.05
 49
12.7
 74
    0
 49
-6.35
 74
    0
  0
LTYPE
  5
37
330
5
100
AcDbSymbolTableRecord
100
AcDbLinetypeTableRecord
  2
DASHEDTINY
 70
    0
  3
Dashed (.15x) _ _ _ _ _ _ _ _ _ _ _ _ _ _ _ _ _
 72
   65
 73
    2
 40
2.8575
 49
1.905
 74
    0
 49
-0.9525
 74
    0
  0
LTYPE
  5
38
330
5
100
AcDbSymbolTableRecord
100
AcDbLinetypeTableRecord
  2
DASHED2
 70
    0
  3
Dashed (.5x) _ _ _ _ _ _ _ _ _ _ _ _ _ _ _ _ _
 72
   65
 73
    2
 40
9.524999999999999
 49
6.35
 74
    0
 49
-3.175
 74
    0
  0
LTYPE
  5
39
330
5
100
AcDbSymbolTableRecord
100
AcDbLinetypeTableRecord
  2
DASHEDX2
 70
    0
  3
Dashed (2x) ____  ____  ____  ____  ____  ___
 72
   65
 73
    2
 40
38.09999999999999
 49
25.4
 74
    0
 49
-12.7
 74
    0
  0
LTYPE
  5
3A
330
5
100
AcDbSymbolTableRecord
100
AcDbLinetypeTableRecord
  2
DASHDOT
 70
    0
  3
Dash dot __ . __ . __ . __ . __ . __ . __ . __
 72
   65
 73
    4
 40
25.4
 49
12.7
 74
    0
 49
-6.35
 74
    0
 49
0
 74
    0
 49
-6.35
 74
    0
  0
LTYPE
  5
3B
330
5
100
AcDbSymbolTableRecord
100
AcDbLinetypeTableRecord
  2
DASHDOTTINY
 70
    0
  3
Dash dot (.15x) _._._._._._._._._._._._._._._.
 72
   65
 73
    4
 40
3.81
 49
1.905
 74
    0
 49
-0.9525
 74
    0
 49
0
 74
    0
 49
-0.9525
 74
    0
  0
LTYPE
  5
3C
330
5
100
AcDbSymbolTableRecord
100
AcDbLinetypeTableRecord
  2
DASHDOT2
 70
    0
  3
Dash dot (.5x) _._._._._._._._._._._._._._._.
 72
   65
 73
    4
 40
12.7
 49
6.35
 74
    0
 49
-3.175
 74
    0
 49
0
 74
    0
 49
-3.175
 74
    0
  0
LTYPE
  5
3D
330
5
100
AcDbSymbolTableRecord
100
AcDbLinetypeTableRecord
  2
DASHDOTX2
 70
    0
  3
Dash dot (2x) ____  .  ____  .  ____  .  ___
 72
   65
 73
    4
 40
50.8
 49
25.4
 74
    0
 49
-12.7
 74
    0
 49
0
 74
    0
 49
-12.7
 74
    0
  0
LTYPE
  5
3E
330
5
100
AcDbSymbolTableRecord
100
AcDbLinetypeTableRecord
  2
DIVIDE
 70
    0
  3
Divide ____ . . ____ . . ____ . . ____ . . ____
 72
   65
 73
    6
 40
31.75
 49
12.7
 74
    0
 49
-6.35
 74
    0
 49
0
 74
    0
 49
-6.35
 74
    0
 49
0
 74
    0
 49
-6.35
 74
    0
  0
LTYPE
  5
3F
330
5
100
AcDbSymbolTableRecord
100
AcDbLinetypeTableRecord
  2
DIVIDETINY
 70
    0
  3
Divide (.15x) __..__..__..__..__..__..__..__.._
 72
   65
 73
    6
 40
4.7625
 49
1.905
 74
    0
 49
-0.9525
 74
    0
 49
0
 74
    0
 49
-0.9525
 74
    0
 49
0
 74
    0
 49
-0.9525
 74
    0
  0
LTYPE
  5
40
330
5
100
AcDbSymbolTableRecord
100
AcDbLinetypeTableRecord
  2
DIVIDE2
 70
    0
  3
Divide (.5x) __..__..__..__..__..__..__..__.._
 72
   65
 73
    6
 40
15.875
 49
6.35
 74
    0
 49
-3.175
 74
    0
 49
0
 74
    0
 49
-3.175
 74
    0
 49
0
 74
    0
 49
-3.175
 74
    0
  0
LTYPE
  5
41
330
5
100
AcDbSymbolTableRecord
100
AcDbLinetypeTableRecord
  2
DIVIDEX2
 70
    0
  3
Divide (2x) ________  .  .  ________  .  .  _
 72
   65
 73
    6
 40
63.5
 49
25.4
 74
    0
 49
-12.7
 74
    0
 49
0
 74
    0
 49
-12.7
 74
    0
 49
0
 74
    0
 49
-12.7
 74
    0
  0
LTYPE
  5
42
330
5
100
AcDbSymbolTableRecord
100
AcDbLinetypeTableRecord
  2
BORDER
 70
    0
  3
Border __ __ . __ __ . __ __ . __ __ . __ __ .
 72
   65
 73
    6
 40
44.45
 49
12.7
 74
    0
 49
-6.35
 74
    0
 49
12.7
 74
    0
 49
-6.35
 74
    0
 49
0
 74
    0
 49
-6.35
 74
    0
  0
LTYPE
  5
43
330
5
100
AcDbSymbolTableRecord
100
AcDbLinetypeTableRecord
  2
BORDERTINY
 70
    0
  3
Border (.15x) __.__.__.__.__.__.__.__.__.__.__.
 72
   65
 73
    6
 40
6.6675
 49
1.905
 74
    0
 49
-0.9525
 74
    0
 49
1.905
 74
    0
 49
-0.9525
 74
    0
 49
0
 74
    0
 49
-0.9525
 74
    0
  0
LTYPE
  5
44
330
5
100
AcDbSymbolTableRecord
100
AcDbLinetypeTableRecord
  2
BORDER2
 70
    0
  3
Border (.5x) __.__.__.__.__.__.__.__.__.__.__.
 72
   65
 73
    6
 40
22.225
 49
6.35
 74
    0
 49
-3.175
 74
    0
 49
6.35
 74
    0
 49
-3.175
 74
    0
 49
0
 74
    0
 49
-3.175
 74
    0
  0
LTYPE
  5
45
330
5
100
AcDbSymbolTableRecord
100
AcDbLinetypeTableRecord
  2
BORDERX2
 70
    0
  3
Border (2x) ____  ____  .  ____  ____  .  ___
 72
   65
 73
    6
 40
88.89999999999999
 49
25.4
 74
    0
 49
-12.7
 74
    0
 49
25.4
 74
    0
 49
-12.7
 74
    0
 49
0
 74
    0
 49
-12.7
 74
    0
  0
LTYPE
  5
46
330
5
100
AcDbSymbolTableRecord
100
AcDbLinetypeTableRecord
  2
CENTER
 70
    0
  3
Center ____ _ ____ _ ____ _ ____ _ ____ _ ____
 72
   65
 73
    4
 40
50.8
 49
31.75
 74
    0
 49
-6.35
 74
    0
 49
6.35
 74
    0
 49
-6.35
 74
    0
  0
LTYPE
  5
47
330
5
100
AcDbSymbolTableRecord
100
AcDbLinetypeTableRecord
  2
CENTERTINY
 70
    0
  3
Center (.15x) ___ _ ___ _ ___ _ ___ _ ___ _ ___
 72
   65
 73
    4
 40
7.619999999999999
 49
4.7625
 74
    0
 49
-0.9525
 74
    0
 49
0.9525
 74
    0
 49
-0.9525
 74
    0
  0
LTYPE
  5
48
330
5
100
AcDbSymbolTableRecord
100
AcDbLinetypeTableRecord
  2
CENTER2
 70
    0
  3
Center (.5x) ___ _ ___ _ ___ _ ___ _ ___ _ ___
 72
   65
 73
    4
 40
28.575
 49
19.05
 74
    0
 49
-3.175
 74
    0
 49
3.175
 74
    0
 49
-3.175
 74
    0
  0
LTYPE
  5
49
330
5
100
AcDbSymbolTableRecord
100
AcDbLinetypeTableRecord
  2
CENTERX2
 70
    0
  3
Center (2x) ________  __  ________  __  _____
 72
   65
 73
    4
 40
101.6
 49
63.5
 74
    0
 49
-12.7
 74
    0
 49
12.7
 74
    0
 49
-12.7
 74
    0
  0
ENDTAB
  0
TABLE
  2
LAYER
  5
2
330
0
100
AcDbSymbolTable
 70
    1
  0
LAYER
  5
10
330
2
100
AcDbSymbolTableRecord
100
AcDbLayerTableRecord
  2
0
 70
    0
 62
    7
  6
CONTINUOUS
370
   -3
390
F
  0
LAYER
  5
4A
330
2
100
AcDbSymbolTableRecord
100
AcDbLayerTableRecord
  2
lay1
 70
    0
 62
    7
  6
CONTINUOUS
370
   90
390
F
  0
LAYER
  5
4B
330
2
100
AcDbSymbolTableRecord
100
AcDbLayerTableRecord
  2
lay2
 70
    0
 62
    7
  6
CONTINUOUS
370
   20
390
F
  0
ENDTAB
  0
TABLE
  2
STYLE
  5
3
330
0
100
AcDbSymbolTable
 70
    3
  0
STYLE
  5
4C
330
2
100
AcDbSymbolTableRecord
100
AcDbTextStyleTableRecord
  2
STANDARD
 70
    0
 40
0
 41
1
 50
0
 71
    0
 42
1
  3
STANDARD
  4

  0
ENDTAB
  0
TABLE
  2
VIEW
  5
6
330
0
100
AcDbSymbolTable
 70
    0
  0
ENDTAB
  0
TABLE
  2
UCS
  5
7
330
0
100
AcDbSymbolTable
 70
    0
  0
ENDTAB
  0
TABLE
  2
APPID
  5
9
330
0
100
AcDbSymbolTable
 70
    1
  0
APPID
  5
12
330
9
100
AcDbSymbolTableRecord
100
AcDbRegAppTableRecord
  2
ACAD
 70
    0
  0
APPID
  5
4D
330
9
100
AcDbSymbolTableRecord
100
AcDbRegAppTableRecord
  2
LibreCad
 70
    0
  0
ENDTAB
  0
TABLE
  2
DIMSTYLE
  5
A
330
0
100
AcDbSymbolTable
 70
    1
100
AcDbDimStyleTable
 71
    1
  0
DIMSTYLE
105
4E
330
A
100
AcDbSymbolTableRecord
100
AcDbDimStyleTableRecord
  2
Standard
 70
    0
 40
0.5
 41
0.5
 42
0.625
 43
0.38
 44
1.25
 45
0
 46
0
 47
0
 48
0
 49
1
140
0.5
141
0.09
142
0
143
25.4
144
1
145
0
146
1
147
0.55
148
0
 71
    0
 72
    0
 73
    0
 74
    1
 75
    0
 76
    0
 77
    0
 78
    8
 79
    0
170
    0
171
    2
172
    0
173
    0
174
    0
175
    0
176
    0
177
    0
178
    0
179
    0
271
    2
272
    4
273
    2
274
    2
275
    0
276
    0
277
    2
278
    0
279
    0
280
    0
281
    0
282
    0
283
    1
284
    0
285
    0
286
    0
288
    0
289
    3
340
standard
341

371
   -3
372
   -2
  0
ENDTAB
  0
TABLE
  2
BLOCK_RECORD
  5
1
330
0
100
AcDbSymbolTable
 70
    2
  0
BLOCK_RECORD
  5
1F
330
1
100
AcDbSymbolTableRecord
100
AcDbBlockTableRecord
  2
*Model_Space
 70
    0
280
    1
281
    0
  0
BLOCK_RECORD
  5
1E
330
1
100
AcDbSymbolTableRecord
100
AcDbBlockTableRecord
  2
*Paper_Space
 70
    0
280
    1
281
    0
  0
BLOCK_RECORD
  5
4F
330
1
100
AcDbSymbolTableRecord
100
AcDbBlockTableRecord
  2
*D8
 70
    0
280
    1
281
    0
  0
BLOCK_RECORD
  5
52
330
1
100
AcDbSymbolTableRecord
100
AcDbBlockTableRecord
  2
*D6
 70
    0
280
    1
281
    0
  0
BLOCK_RECORD
  5
55
330
1
100
AcDbSymbolTableRecord
100
AcDbBlockTableRecord
  2
*D4
 70
    0
280
    1
281
    0
  0
BLOCK_RECORD
  5
58
330
1
100
AcDbSymbolTableRecord
100
AcDbBlockTableRecord
  2
*D9
 70
    0
280
    1
281
    0
  0
BLOCK_RECORD
  5
5B
330
1
100
AcDbSymbolTableRecord
100
AcDbBlockTableRecord
  2
*D14
 70
    0
280
    1
281
    0
  0
BLOCK_RECORD
  5
5E
330
1
100
AcDbSymbolTableRecord
100
AcDbBlockTableRecord
  2
*D3
 70
    0
280
    1
281
    0
  0
BLOCK_RECORD
  5
61
330
1
100
AcDbSymbolTableRecord
100
AcDbBlockTableRecord
  2
*D2
 70
    0
280
    1
281
    0
  0
BLOCK_RECORD
  5
64
330
1
100
AcDbSymbolTableRecord
100
AcDbBlockTableRecord
  2
*D12
 70
    0
280
    1
281
    0
  0
BLOCK_RECORD
  5
67
330
1
100
AcDbSymbolTableRecord
100
AcDbBlockTableRecord
  2
*D1
 70
    0
280
    1
281
    0
  0
BLOCK_RECORD
  5
6A
330
1
100
AcDbSymbolTableRecord
100
AcDbBlockTableRecord
  2
*D11
 70
    0
280
    1
281
    0
  0
BLOCK_RECORD
  5
6D
330
1
100
AcDbSymbolTableRecord
100
AcDbBlockTableRecord
  2
*D7
 70
    0
280
    1
281
    0
  0
BLOCK_RECORD
  5
70
330
1
100
AcDbSymbolTableRecord
100
AcDbBlockTableRecord
  2
*D15
 70
    0
280
    1
281
    0
  0
BLOCK_RECORD
  5
73
330
1
100
AcDbSymbolTableRecord
100
AcDbBlockTableRecord
  2
*D5
 70
    0
280
    1
281
    0
  0
BLOCK_RECORD
  5
76
330
1
100
AcDbSymbolTableRecord
100
AcDbBlockTableRecord
  2
*D10
 70
    0
280
    1
281
    0
  0
BLOCK_RECORD
  5
79
330
1
100
AcDbSymbolTableRecord
100
AcDbBlockTableRecord
  2
*D13
 70
    0
280
    1
281
    0
  0
ENDTAB
  0
ENDSEC
  0
SECTION
  2
BLOCKS
  0
BLOCK
  5
20
330
1F
100
AcDbEntity
  8
0
100
AcDbBlockBegin
  2
*Model_Space
 70
    0
 10
0
 20
0
 30
0
  3
*Model_Space
  1

  0
ENDBLK
  5
21
330
1F
100
AcDbEntity
  8
0
100
AcDbBlockEnd
  0
BLOCK
  5
1C
330
1B
100
AcDbEntity
  8
0
100
AcDbBlockBegin
  2
*Paper_Space
 70
    0
 10
0
 20
0
 30
0
  3
*Paper_Space
  1

  0
ENDBLK
  5
1D
330
1F
100
AcDbEntity
  8
0
100
AcDbBlockEnd
  0
BLOCK
  5
50
330
4F
100
AcDbEntity
  8
0
100
AcDbBlockBegin
  2
*D8
 70
    1
 10
0
 20
0
  3
*D8
  1

  0
LINE
  5
7C
100
AcDbEntity
  8
0
  6
ByBlock
 62
    0
370
   -3
100
AcDbLine
 10
86.90000000000001
 20
17.7
 11
85.3
 21
17.7
  0
MTEXT
  5
7D
100
AcDbEntity
  8
0
  6
CONTINUOUS
 62
    0
370
   -2
100
AcDbMText
 10
86.09999999999999
 20
18.1
 30
0
 40
0.25
 41
0.3333333333333488
 71
    5
 72
    1
  1
1.6
  7
standard
210
0
220
0
230
1
 50
0
 73
    2
 44
1
  0
SOLID
  5
7E
100
AcDbEntity
  8
0
  6
ByBlock
 62
    0
370
   -3
100
AcDbTrace
 10
86.90000000000001
 20
17.7
 30
0
 11
86.65000000000001
 21
17.65837153422272
 31
0
 12
86.65000000000001
 22
17.74162846577728
 32
0
 13
86.65000000000001
 23
17.74162846577728
 33
0
  0
SOLID
  5
7F
100
AcDbEntity
  8
0
  6
ByBlock
 62
    0
370
   -3
100
AcDbTrace
 10
85.3
 20
17.7
 30
0
 11
85.55
 21
17.74162846577728
 31
0
 12
85.55
 22
17.65837153422272
 32
0
 13
85.55
 23
17.65837153422272
 33
0
  0
LINE
  5
80
100
AcDbEntity
  8
0
  6
ByBlock
 62
    0
370
   -2
100
AcDbLine
 10
86.90000000000001
 20
17.3875
 11
86.90000000000001
 21
17.075
  0
LINE
  5
81
100
AcDbEntity
  8
0
  6
ByBlock
 62
    0
370
   -2
100
AcDbLine
 10
85.3
 20
17.5875
 11
85.3
 21
17.075
  0
ENDBLK
  5
51
330
4F
100
AcDbEntity
  8
0
100
AcDbBlockEnd
  0
BLOCK
  5
53
330
52
100
AcDbEntity
  8
0
100
AcDbBlockBegin
  2
*D6
 70
    1
 10
0
 20
0
  3
*D6
  1

  0
LINE
  5
82
100
AcDbEntity
  8
0
  6
ByBlock
 62
    0
370
   -3
100
AcDbLine
 10
88.3814888136517
 20
19.3
 11
88.3814888136517
 21
20.9
  0
MTEXT
  5
83
100
AcDbEntity
  8
0
  6
CONTINUOUS
 62
    0
370
   -2
100
AcDbMText
 10
87.98148881365169
 20
20.1
 30
0
 40
0.25
 41
0.3333333333333488
 71
    5
 72
    1
  1
1.6
  7
standard
210
0
220
0
230
1
 50
90
 73
    2
 44
1
  0
SOLID
  5
84
100
AcDbEntity
  8
0
  6
ByBlock
 62
    0
370
   -3
100
AcDbTrace
 10
88.3814888136517
 20
19.3
 30
0
 11
88.33986034787442
 21
19.55
 31
0
 12
88.42311727942898
 22
19.55
 32
0
 13
88.42311727942898
 23
19.55
 33
0
  0
SOLID
  5
85
100
AcDbEntity
  8
0
  6
ByBlock
 62
    0
370
   -3
100
AcDbTrace
 10
88.3814888136517
 20
20.9
 30
0
 11
88.42311727942898
 21
20.65
 31
0
 12
88.33986034787442
 22
20.65
 32
0
 13
88.33986034787442
 23
20.65
 33
0
  0
LINE
  5
86
100
AcDbEntity
  8
0
  6
ByBlock
 62
    0
370
   -2
100
AcDbLine
 10
83.1125021372636
 20
19.3
 11
89.0064888136517
 21
19.3
  0
LINE
  5
87
100
AcDbEntity
  8
0
  6
ByBlock
 62
    0
370
   -2
100
AcDbLine
 10
83.1125
 20
20.9
 11
89.0064888136517
 21
20.9
  0
ENDBLK
  5
54
330
52
100
AcDbEntity
  8
0
100
AcDbBlockEnd
  0
BLOCK
  5
56
330
55
100
AcDbEntity
  8
0
100
AcDbBlockBegin
  2
*D4
 70
    1
 10
0
 20
0
  3
*D4
  1

  0
LINE
  5
88
100
AcDbEntity
  8
0
  6
ByBlock
 62
    0
370
   -3
100
AcDbLine
 10
91.2111182897409
 20
13.6
 11
91.2111182897409
 21
11.1
  0
MTEXT
  5
89
100
AcDbEntity
  8
0
  6
CONTINUOUS
 62
    0
370
   -2
100
AcDbMText
 10
90.81111828974089
 20
12.35
 30
0
 40
0.25
 41
0.3888888888889044
 71
    5
 72
    1
  1
2.5
  7
standard
210
0
220
0
230
1
 50
90
 73
    2
 44
1
  0
SOLID
  5
8A
100
AcDbEntity
  8
0
  6
ByBlock
 62
    0
370
   -3
100
AcDbTrace
 10
91.2111182897409
 20
13.6
 30
0
 11
91.25274675551817
 21
13.35
 31
0
 12
91.16948982396362
 22
13.35
 32
0
 13
91.16948982396362
 23
13.35
 33
0
  0
SOLID
  5
8B
100
AcDbEntity
  8
0
  6
ByBlock
 62
    0
370
   -3
100
AcDbTrace
 10
91.2111182897409
 20
11.1
 30
0
 11
91.16948982396362
 21
11.35
 31
0
 12
91.25274675551817
 22
11.35
 32
0
 13
91.25274675551817
 23
11.35
 33
0
  0
LINE
  5
8C
100
AcDbEntity
  8
0
  6
ByBlock
 62
    0
370
   -2
100
AcDbLine
 10
87.1125
 20
13.6
 11
91.8361182897409
 21
13.6
  0
LINE
  5
8D
100
AcDbEntity
  8
0
  6
ByBlock
 62
    0
370
   -2
100
AcDbLine
 10
87.1125
 20
11.1
 11
91.8361182897409
 21
11.1
  0
ENDBLK
  5
57
330
55
100
AcDbEntity
  8
0
100
AcDbBlockEnd
  0
BLOCK
  5
59
330
58
100
AcDbEntity
  8
0
100
AcDbBlockBegin
  2
*D9
 70
    1
 10
0
 20
0
  3
*D9
  1

  0
LINE
  5
8E
100
AcDbEntity
  8
0
  6
CONTINUOUS
 62
    7
370
    0
100
AcDbLine
 10
80.75
 20
28.5507041555162
 11
80.09755614476371
 21
29.00511213933662
  0
LINE
  5
8F
100
AcDbEntity
  8
0
  6
CONTINUOUS
 62
    7
370
    0
100
AcDbLine
 10
80.09755614476371
 20
29.00511213933662
 11
78.9297151179767
 21
29.00511213933662
  0
SOLID
  5
90
100
AcDbEntity
  8
0
  6
CONTINUOUS
 62
    7
370
    0
100
AcDbTrace
 10
80.75
 20
28.5507041555162
 30
0
 11
80.52106106701915
 21
28.65942349201417
 31
0
 12
80.56864381836179
 22
28.7277433165642
 32
0
 13
80.56864381836179
 23
28.7277433165642
 33
0
  0
ENDBLK
  5
5A
330
58
100
AcDbEntity
  8
0
100
AcDbBlockEnd
  0
BLOCK
  5
5C
330
5B
100
AcDbEntity
  8
0
100
AcDbBlockBegin
  2
*D14
 70
    1
 10
0
 20
0
  3
*D14
  1

  0
LINE
  5
91
100
AcDbEntity
  8
0
  6
CONTINUOUS
 62
    7
370
    0
100
AcDbLine
 10
77.76076951545868
 20
14.2
 11
74.8229231216105
 21
14.36290908210681
  0
LINE
  5
92
100
AcDbEntity
  8
0
  6
CONTINUOUS
 62
    7
370
    0
100
AcDbLine
 10
74.8229231216105
 20
14.36290908210681
 11
74.8229231216105
 21
14.36290908210681
  0
SOLID
  5
93
100
AcDbEntity
  8
0
  6
CONTINUOUS
 62
    7
370
    0
100
AcDbTrace
 10
77.76076951545868
 20
14.2
 30
0
 11
77.50884815958051
 21
14.17227709222551
 31
0
 12
77.51345783056769
 22
14.25540631443571
 32
0
 13
77.51345783056769
 23
14.25540631443571
 33
0
  0
ENDBLK
  5
5D
330
5B
100
AcDbEntity
  8
0
100
AcDbBlockEnd
  0
BLOCK
  5
5F
330
5E
100
AcDbEntity
  8
0
100
AcDbBlockBegin
  2
*D3
 70
    1
 10
0
 20
0
  3
*D3
  1

  0
LINE
  5
94
100
AcDbEntity
  8
0
  6
ByBlock
 62
    0
370
   -3
100
AcDbLine
 10
86.8
 20
8.465193505328466
 11
88.8
 21
8.465193505328466
  0
MTEXT
  5
95
100
AcDbEntity
  8
0
  6
CONTINUOUS
 62
    0
370
   -2
100
AcDbMText
 10
87.8
 20
8.865193505328467
 30
0
 40
0.25
 41
0.1111111111111111
 71
    5
 72
    1
  1
2
  7
standard
210
0
220
0
230
1
 50
0
 73
    2
 44
1
  0
SOLID
  5
96
100
AcDbEntity
  8
0
  6
ByBlock
 62
    0
370
   -3
100
AcDbTrace
 10
86.8
 20
8.465193505328466
 30
0
 11
87.05
 21
8.506821971105751
 31
0
 12
87.05
 22
8.423565039551182
 32
0
 13
87.05
 23
8.423565039551182
 33
0
  0
SOLID
  5
97
100
AcDbEntity
  8
0
  6
ByBlock
 62
    0
370
   -3
100
AcDbTrace
 10
88.8
 20
8.465193505328466
 30
0
 11
88.55
 21
8.423565039551182
 31
0
 12
88.55
 22
8.506821971105751
 32
0
 13
88.55
 23
8.506821971105751
 33
0
  0
LINE
  5
98
100
AcDbEntity
  8
0
  6
ByBlock
 62
    0
370
   -2
100
AcDbLine
 10
86.8
 20
13.2875
 11
86.8
 21
7.840193505328466
  0
LINE
  5
99
100
AcDbEntity
  8
0
  6
ByBlock
 62
    0
370
   -2
100
AcDbLine
 10
88.8
 20
13.2875
 11
88.8
 21
7.840193505328466
  0
ENDBLK
  5
60
330
5E
100
AcDbEntity
  8
0
100
AcDbBlockEnd
  0
BLOCK
  5
62
330
61
100
AcDbEntity
  8
0
100
AcDbBlockBegin
  2
*D2
 70
    1
 10
0
 20
0
  3
*D2
  1

  0
LINE
  5
9A
100
AcDbEntity
  8
0
  6
ByBlock
 62
    0
370
   -3
100
AcDbLine
 10
92.1091444108949
 20
15.1
 11
92.1091444108949
 21
11.1
  0
MTEXT
  5
9B
100
AcDbEntity
  8
0
  6
CONTINUOUS
 62
    0
370
   -2
100
AcDbMText
 10
91.70914441089489
 20
13.1
 30
0
 40
0.25
 41
0.1388888888888889
 71
    5
 72
    1
  1
4
  7
standard
210
0
220
0
230
1
 50
90
 73
    2
 44
1
  0
SOLID
  5
9C
100
AcDbEntity
  8
0
  6
ByBlock
 62
    0
370
   -3
100
AcDbTrace
 10
92.1091444108949
 20
15.1
 30
0
 11
92.15077287667218
 21
14.85
 31
0
 12
92.06751594511762
 22
14.85
 32
0
 13
92.06751594511762
 23
14.85
 33
0
  0
SOLID
  5
9D
100
AcDbEntity
  8
0
  6
ByBlock
 62
    0
370
   -3
100
AcDbTrace
 10
92.1091444108949
 20
11.1
 30
0
 11
92.06751594511762
 21
11.35
 31
0
 12
92.15077287667218
 22
11.35
 32
0
 13
92.15077287667218
 23
11.35
 33
0
  0
LINE
  5
9E
100
AcDbEntity
  8
0
  6
ByBlock
 62
    0
370
   -2
100
AcDbLine
 10
89.1125
 20
15.1
 11
92.7341444108949
 21
15.1
  0
LINE
  5
9F
100
AcDbEntity
  8
0
  6
ByBlock
 62
    0
370
   -2
100
AcDbLine
 10
89.1125
 20
11.1
 11
92.7341444108949
 21
11.1
  0
ENDBLK
  5
63
330
61
100
AcDbEntity
  8
0
100
AcDbBlockEnd
  0
BLOCK
  5
65
330
64
100
AcDbEntity
  8
0
100
AcDbBlockBegin
  2
*D12
 70
    1
 10
0
 20
0
  3
*D12
  1

  0
LINE
  5
A0
100
AcDbEntity
  8
0
  6
CONTINUOUS
 62
    7
370
    0
100
AcDbLine
 10
78.42
 20
12.94182069312383
 11
75.13783622853244
 21
12.81393345931413
  0
SOLID
  5
A1
100
AcDbEntity
  8
0
  6
CONTINUOUS
 62
    7
370
    0
100
AcDbTrace
 10
78.42
 20
12.94182069312383
 30
0
 11
78.1718103557145
 21
12.89049010153941
 31
0
 12
78.16856876693436
 22
12.97368390391712
 32
0
 13
78.16856876693436
 23
12.97368390391712
 33
0
  0
ENDBLK
  5
66
330
64
100
AcDbEntity
  8
0
100
AcDbBlockEnd
  0
BLOCK
  5
68
330
67
100
AcDbEntity
  8
0
100
AcDbBlockBegin
  2
*D1
 70
    1
 10
0
 20
0
  3
*D1
  1

  0
LINE
  5
A2
100
AcDbEntity
  8
0
  6
ByBlock
 62
    0
370
   -3
100
AcDbLine
 10
76.79999999999998
 20
7.56716738417443
 11
88.8
 21
7.56716738417443
  0
MTEXT
  5
A3
100
AcDbEntity
  8
0
  6
CONTINUOUS
 62
    0
370
   -2
100
AcDbMText
 10
82.79999999999998
 20
7.96716738417443
 30
0
 40
0.25
 41
0.25
 71
    5
 72
    1
  1
12
  7
standard
210
0
220
0
230
1
 50
0
 73
    2
 44
1
  0
SOLID
  5
A4
100
AcDbEntity
  8
0
  6
ByBlock
 62
    0
370
   -3
100
AcDbTrace
 10
76.79999999999998
 20
7.56716738417443
 30
0
 11
77.04999999999998
 21
7.608795849951713
 31
0
 12
77.04999999999998
 22
7.525538918397146
 32
0
 13
77.04999999999998
 23
7.525538918397146
 33
0
  0
SOLID
  5
A5
100
AcDbEntity
  8
0
  6
ByBlock
 62
    0
370
   -3
100
AcDbTrace
 10
88.8
 20
7.56716738417443
 30
0
 11
88.55
 21
7.525538918397146
 31
0
 12
88.55
 22
7.608795849951713
 32
0
 13
88.55
 23
7.608795849951713
 33
0
  0
LINE
  5
A6
100
AcDbEntity
  8
0
  6
ByBlock
 62
    0
370
   -2
100
AcDbLine
 10
76.79999999999998
 20
10.7875
 11
76.79999999999998
 21
6.94216738417443
  0
LINE
  5
A7
100
AcDbEntity
  8
0
  6
ByBlock
 62
    0
370
   -2
100
AcDbLine
 10
88.8
 20
10.7875
 11
88.8
 21
6.94216738417443
  0
ENDBLK
  5
69
330
67
100
AcDbEntity
  8
0
100
AcDbBlockEnd
  0
BLOCK
  5
6B
330
6A
100
AcDbEntity
  8
0
100
AcDbBlockBegin
  2
*D11
 70
    1
 10
0
 20
0
  3
*D11
  1

  0
LINE
  5
A8
100
AcDbEntity
  8
0
  6
CONTINUOUS
 62
    7
370
    0
100
AcDbLine
 10
81
 20
25
 11
78.39625687117275
 21
26.25131416259192
  0
LINE
  5
A9
100
AcDbEntity
  8
0
  6
CONTINUOUS
 62
    7
370
    0
100
AcDbLine
 10
78.39625687117275
 20
26.25131416259192
 11
77.51677165346895
 21
26.25131416259192
  0
SOLID
  5
AA
100
AcDbEntity
  8
0
  6
CONTINUOUS
 62
    7
370
    0
100
AcDbTrace
 10
81
 20
25
 30
0
 11
80.75663879121416
 21
25.07076899901275
 31
0
 12
80.7927021924729
 22
25.14580997276398
 32
0
 13
80.7927021924729
 23
25.14580997276398
 33
0
  0
ENDBLK
  5
6C
330
6A
100
AcDbEntity
  8
0
100
AcDbBlockEnd
  0
BLOCK
  5
6E
330
6D
100
AcDbEntity
  8
0
100
AcDbBlockBegin
  2
*D7
 70
    1
 10
0
 20
0
  3
*D7
  1

  0
LINE
  5
AB
100
AcDbEntity
  8
0
  6
ByBlock
 62
    0
370
   -3
100
AcDbLine
 10
93.53243109347871
 20
11.1
 11
93.53243109347871
 21
29.10285040279296
  0
MTEXT
  5
AC
100
AcDbEntity
  8
0
  6
CONTINUOUS
 62
    0
370
   -2
100
AcDbMText
 10
93.1324310934787
 20
20.10142520139648
 30
0
 40
0.25
 41
0.25
 71
    5
 72
    1
  1
18
  7
standard
210
0
220
0
230
1
 50
90
 73
    2
 44
1
  0
SOLID
  5
AD
100
AcDbEntity
  8
0
  6
ByBlock
 62
    0
370
   -3
100
AcDbTrace
 10
93.53243109347871
 20
11.1
 30
0
 11
93.49080262770143
 21
11.35
 31
0
 12
93.57405955925599
 22
11.35
 32
0
 13
93.57405955925599
 23
11.35
 33
0
  0
SOLID
  5
AE
100
AcDbEntity
  8
0
  6
ByBlock
 62
    0
370
   -3
100
AcDbTrace
 10
93.53243109347871
 20
29.10285040279296
 30
0
 11
93.57405955925599
 21
28.85285040279296
 31
0
 12
93.49080262770143
 22
28.85285040279296
 32
0
 13
93.49080262770143
 23
28.85285040279296
 33
0
  0
LINE
  5
AF
100
AcDbEntity
  8
0
  6
ByBlock
 62
    0
370
   -2
100
AcDbLine
 10
85.1125
 20
11.1
 11
94.15743109347871
 21
11.1
  0
LINE
  5
B0
100
AcDbEntity
  8
0
  6
ByBlock
 62
    0
370
   -2
100
AcDbLine
 10
85.0171648836437
 20
29.10285040279296
 11
94.15743109347871
 21
29.10285040279296
  0
ENDBLK
  5
6F
330
6D
100
AcDbEntity
  8
0
100
AcDbBlockEnd
  0
BLOCK
  5
71
330
70
100
AcDbEntity
  8
0
100
AcDbBlockBegin
  2
*D15
 70
    1
 10
0
 20
0
  3
*D15
  1

  0
LINE
  5
B1
100
AcDbEntity
  8
0
  6
CONTINUOUS
 62
    7
370
    0
100
AcDbLine
 10
78.03615563670473
 20
15.40245900879165
 11
77.81820074111117
 21
16.35099003640556
  0
LINE
  5
B2
100
AcDbEntity
  8
0
  6
CONTINUOUS
 62
    7
370
    0
100
AcDbLine
 10
77.81820074111117
 20
16.35099003640556
 11
76.44910140052092
 21
16.43396575401709
  0
SOLID
  5
B3
100
AcDbEntity
  8
0
  6
CONTINUOUS
 62
    7
370
    0
100
AcDbTrace
 10
78.03615563670473
 20
15.40245900879165
 30
0
 11
77.93959810158371
 21
15.63678692342054
 31
0
 12
78.02074044698732
 22
15.65543193439624
 32
0
 13
78.02074044698732
 23
15.65543193439624
 33
0
  0
ENDBLK
  5
72
330
70
100
AcDbEntity
  8
0
100
AcDbBlockEnd
  0
BLOCK
  5
74
330
73
100
AcDbEntity
  8
0
100
AcDbBlockBegin
  2
*D5
 70
    1
 10
0
 20
0
  3
*D5
  1

  0
LINE
  5
B4
100
AcDbEntity
  8
0
  6
ByBlock
 62
    0
370
   -3
100
AcDbLine
 10
89.9742143870193
 20
11.1
 11
89.9742143870193
 21
12.1
  0
MTEXT
  5
B5
100
AcDbEntity
  8
0
  6
CONTINUOUS
 62
    0
370
   -2
100
AcDbMText
 10
89.5742143870193
 20
11.6
 30
0
 40
0.25
 41
0.05555555555555555
 71
    5
 72
    1
  1
1
  7
standard
210
0
220
0
230
1
 50
90
 73
    2
 44
1
  0
SOLID
  5
B6
100
AcDbEntity
  8
0
  6
ByBlock
 62
    0
370
   -3
100
AcDbTrace
 10
89.9742143870193
 20
11.1
 30
0
 11
89.93258592124202
 21
11.35
 31
0
 12
90.01584285279658
 22
11.35
 32
0
 13
90.01584285279658
 23
11.35
 33
0
  0
SOLID
  5
B7
100
AcDbEntity
  8
0
  6
ByBlock
 62
    0
370
   -3
100
AcDbTrace
 10
89.9742143870193
 20
12.1
 30
0
 11
90.01584285279658
 21
11.85
 31
0
 12
89.93258592124202
 22
11.85
 32
0
 13
89.93258592124202
 23
11.85
 33
0
  0
LINE
  5
B8
100
AcDbEntity
  8
0
  6
ByBlock
 62
    0
370
   -2
100
AcDbLine
 10
89.1125
 20
11.1
 11
90.5992143870193
 21
11.1
  0
LINE
  5
B9
100
AcDbEntity
  8
0
  6
ByBlock
 62
    0
370
   -2
100
AcDbLine
 10
89.1125
 20
12.1
 11
90.5992143870193
 21
12.1
  0
ENDBLK
  5
75
330
73
100
AcDbEntity
  8
0
100
AcDbBlockEnd
  0
BLOCK
  5
77
330
76
100
AcDbEntity
  8
0
100
AcDbBlockBegin
  2
*D10
 70
    1
 10
0
 20
0
  3
*D10
  1

  0
LINE
  5
BA
100
AcDbEntity
  8
0
  6
CONTINUOUS
 62
    7
370
    0
100
AcDbLine
 10
81.59999999999999
 20
27.07846096908265
 11
81.0923836861008
 21
27.7651821602788
  0
LINE
  5
BB
100
AcDbEntity
  8
0
  6
CONTINUOUS
 62
    7
370
    0
100
AcDbLine
 10
81.0923836861008
 20
27.7651821602788
 11
77.86279862436881
 21
27.86610669345792
  0
SOLID
  5
BC
100
AcDbEntity
  8
0
  6
CONTINUOUS
 62
    7
370
    0
100
AcDbTrace
 10
81.59999999999999
 20
27.07846096908265
 30
0
 11
81.41791901134135
 21
27.25475459554731
 31
0
 12
81.48487039538374
 22
27.30424427959048
 32
0
 13
81.48487039538374
 23
27.30424427959048
 33
0
  0
ENDBLK
  5
78
330
76
100
AcDbEntity
  8
0
100
AcDbBlockEnd
  0
BLOCK
  5
7A
330
79
100
AcDbEntity
  8
0
100
AcDbBlockBegin
  2
*D13
 70
    1
 10
0
 20
0
  3
*D13
  1

  0
LINE
  5
BD
100
AcDbEntity
  8
0
  6
ByBlock
 62
    0
370
   -3
100
AcDbLine
 10
82.8229231216105
 20
16.9
 11
82.8229231216105
 21
12.1
  0
MTEXT
  5
BE
100
AcDbEntity
  8
0
  6
CONTINUOUS
 62
    0
370
   -2
100
AcDbMText
 10
82.42292312161049
 20
14.5
 30
0
 40
0.25
 41
0.4166666666666666
 71
    5
 72
    1
  1
4.8
  7
standard
210
0
220
0
230
1
 50
90
 73
    2
 44
1
  0
SOLID
  5
BF
100
AcDbEntity
  8
0
  6
ByBlock
 62
    0
370
   -3
100
AcDbTrace
 10
82.8229231216105
 20
16.9
 30
0
 11
82.86455158738778
 21
16.65
 31
0
 12
82.78129465583322
 22
16.65
 32
0
 13
82.78129465583322
 23
16.65
 33
0
  0
SOLID
  5
C0
100
AcDbEntity
  8
0
  6
ByBlock
 62
    0
370
   -3
100
AcDbTrace
 10
82.8229231216105
 20
12.1
 30
0
 11
82.78129465583322
 21
12.35
 31
0
 12
82.86455158738778
 22
12.35
 32
0
 13
82.86455158738778
 23
12.35
 33
0
  0
LINE
  5
C1
100
AcDbEntity
  8
0
  6
ByBlock
 62
    0
370
   -2
100
AcDbLine
 10
82.27916666666667
 20
16.9
 11
83.4479231216105
 21
16.9
  0
LINE
  5
C2
100
AcDbEntity
  8
0
  6
ByBlock
 62
    0
370
   -2
100
AcDbLine
 10
81.11249999999998
 20
12.1
 11
83.4479231216105
 21
12.1
  0
ENDBLK
  5
7B
330
79
100
AcDbEntity
  8
0
100
AcDbBlockEnd
  0
ENDSEC
  0
SECTION
  2
ENTITIES
  0
MTEXT
  5
C3
100
AcDbEntity
  8
lay1
  6
ByLayer
 62
  256
370
   -3
100
AcDbMText
 10
105.9770768783895
 20
14.63709091789319
 30
0
 40
4
 41
0
 71
    5
 72
    1
  1

  7
STANDARD
210
0
220
0
230
1
 50
0
 73
    2
 44
0
  0
MTEXT
  5
C4
100
AcDbEntity
  8
lay1
  6
ByLayer
 62
  256
370
   -3
100
AcDbMText
 10
113
 20
8
 30
0
 40
4
 41
0
 71
    5
 72
    1
  1

  7
STANDARD
210
0
220
0
230
1
 50
0
 73
    2
 44
0
  0
MTEXT
  5
C5
100
AcDbEntity
  8
lay1
  6
ByLayer
 62
  256
370
   -3
100
AcDbMText
 10
105.9770768783895
 20
14.63709091789319
 30
0
 40
4
 41
0
 71
    5
 72
    1
  1

  7
STANDARD
210
0
220
0
230
1
 50
0
 73
    2
 44
0
  0
ARC
  5
C6
100
AcDbEntity
  8
0
  6
ByLayer
 62
  256
370
   -1
100
AcDbCircle
 10
80.3
 20
19.9
 40
0
100
AcDbArc
 50
0
 51
346.5042667192042
  0
ARC
  5
C7
100
AcDbEntity
  8
0
  6
ByLayer
 62
  256
370
   -1
100
AcDbCircle
 10
82.8
 20
19.3
 40
0
100
AcDbArc
 50
0
 51
0
  0
ARC
  5
C8
100
AcDbEntity
  8
0
  6
ByLayer
 62
  256
370
   -1
100
AcDbCircle
 10
85.3
 20
19.9
 40
0
100
AcDbArc
 50
0
 51
0
  0
ARC
  5
C9
100
AcDbEntity
  8
0
  6
ByLayer
 62
  256
370
   -1
100
AcDbCircle
 10
80.3
 20
19.9
 40
0
100
AcDbArc
 50
0
 51
270.0000006247712
  0
ARC
  5
CA
100
AcDbEntity
  8
0
  6
ByLayer
 62
  256
370
   -1
100
AcDbCircle
 10
82.8
 20
19.3
 40
0
100
AcDbArc
 50
13.49573328079578
 51
0
  0
ARC
  5
CB
100
AcDbEntity
  8
0
  6
ByLayer
 62
  256
370
   -1
100
AcDbCircle
 10
80.3
 20
19.9
 40
0
100
AcDbArc
 50
0
 51
346.5042667192042
  0
ARC
  5
CC
100
AcDbEntity
  8
0
  6
ByLayer
 62
  256
370
   -1
100
AcDbCircle
 10
82.8
 20
19.3
 40
0
100
AcDbArc
 50
0
 51
166.5042949603971
  0
ARC
  5
CD
100
AcDbEntity
  8
0
  6
ByLayer
 62
  256
370
   -1
100
AcDbCircle
 10
82.8
 20
19.3
 40
0
100
AcDbArc
 50
0
 51
13.49573328079578
  0
ARC
  5
CE
100
AcDbEntity
  8
0
  6
ByLayer
 62
  256
370
   -1
100
AcDbCircle
 10
82.8
 20
19.3
 40
0
100
AcDbArc
 50
90
 51
0
  0
ARC
  5
CF
100
AcDbEntity
  8
0
  6
ByLayer
 62
  256
370
   -1
100
AcDbCircle
 10
80.3
 20
19.9
 40
0
100
AcDbArc
 50
0
 51
358.4724745577871
  0
ARC
  5
D0
100
AcDbEntity
  8
0
  6
ByLayer
 62
  256
370
   -1
100
AcDbCircle
 10
80.3
 20
19.3
 40
0
100
AcDbArc
 50
0
 51
0
  0
ARC
  5
D1
100
AcDbEntity
  8
0
  6
ByLayer
 62
  256
370
   -1
100
AcDbCircle
 10
82.8
 20
19.3
 40
0
100
AcDbArc
 50
90
 51
0
  0
ARC
  5
D2
100
AcDbEntity
  8
0
  6
ByLayer
 62
  256
370
   -1
100
AcDbCircle
 10
80.3
 20
19.3
 40
0
100
AcDbArc
 50
0
 51
0
  0
ARC
  5
D3
100
AcDbEntity
  8
0
  6
ByLayer
 62
  256
370
   -1
100
AcDbCircle
 10
85.3
 20
19.3
 40
0
100
AcDbArc
 50
0
 51
0
  0
ARC
  5
D4
100
AcDbEntity
  8
0
  6
ByLayer
 62
  256
370
   -1
100
AcDbCircle
 10
80.3
 20
19.3
 40
0
100
AcDbArc
 50
0
 51
0
  0
ARC
  5
D5
100
AcDbEntity
  8
0
  6
ByLayer
 62
  256
370
   -1
100
AcDbCircle
 10
80.3
 20
19.3
 40
0
100
AcDbArc
 50
0
 51
0
  0
DIMENSION
  5
D6
100
AcDbEntity
  8
0
  6
ByLayer
 62
  256
370
   -1
100
AcDbDimension
  2
*D1
 10
88.8
 20
7.56716738417443
 30
0
 11
82.79999999999998
 21
7.96716738417443
 31
0
 70
   32
 71
    5
 72
    0
  3
Standard
 53
0
210
0
220
0
230
1
100
AcDbAlignedDimension
 13
76.79999999999998
 23
11.1
 33
0
 14
88.8
 24
11.1
 34
0
100
AcDbRotatedDimension
  0
DIMENSION
  5
D7
100
AcDbEntity
  8
0
  6
ByLayer
 62
  256
370
   -1
100
AcDbDimension
  2
*D2
 10
92.1091444108949
 20
11.1
 30
0
 11
91.70914441089489
 21
13.1
 31
0
 70
   32
 71
    5
 72
    0
  3
Standard
 53
0
210
0
220
0
230
1
100
AcDbAlignedDimension
 13
88.8
 23
15.1
 33
0
 14
88.8
 24
11.1
 34
0
 50
90
100
AcDbRotatedDimension
  0
LINE
  5
D8
100
AcDbEntity
  8
0
  6
ByLayer
 62
  256
370
   -1
100
AcDbLine
 10
88.8
 20
11.1
 11
86.8
 21
11.1
  0
DIMENSION
  5
D9
100
AcDbEntity
  8
0
  6
ByLayer
 62
  256
370
   -1
100
AcDbDimension
  2
*D3
 10
88.8
 20
8.465193505328466
 30
0
 11
87.8
 21
8.865193505328467
 31
0
 70
   32
 71
    5
 72
    0
  3
Standard
 53
0
210
0
220
0
230
1
100
AcDbAlignedDimension
 13
86.8
 23
13.6
 33
0
 14
88.8
 24
13.6
 34
0
100
AcDbRotatedDimension
  0
DIMENSION
  5
DA
100
AcDbEntity
  8
0
  6
ByLayer
 62
  256
370
   -1
100
AcDbDimension
  2
*D4
 10
91.2111182897409
 20
11.1
 30
0
 11
90.81111828974089
 21
12.35
 31
0
 70
   32
 71
    5
 72
    0
  3
Standard
 53
0
210
0
220
0
230
1
100
AcDbAlignedDimension
 13
86.8
 23
13.6
 33
0
 14
86.8
 24
11.1
 34
0
 50
90
100
AcDbRotatedDimension
  0
DIMENSION
  5
DB
100
AcDbEntity
  8
0
  6
ByLayer
 62
  256
370
   -1
100
AcDbDimension
  2
*D5
 10
89.9742143870193
 20
12.1
 30
0
 11
89.5742143870193
 21
11.6
 31
0
 70
   32
 71
    5
 72
    0
  3
Standard
 53
0
210
0
220
0
230
1
100
AcDbAlignedDimension
 13
88.8
 23
11.1
 33
0
 14
88.8
 24
12.1
 34
0
 50
90
100
AcDbRotatedDimension
  0
DIMENSION
  5
DC
100
AcDbEntity
  8
0
  6
ByLayer
 62
  256
370
   -1
100
AcDbDimension
  2
*D6
 10
88.3814888136517
 20
20.9
 30
0
 11
87.98148881365169
 21
20.1
 31
0
 70
   32
 71
    5
 72
    0
  3
Standard
 53
0
210
0
220
0
230
1
100
AcDbAlignedDimension
 13
82.8000021372636
 23
19.3
 33
0
 14
82.8
 24
20.9
 34
0
 50
90
100
AcDbRotatedDimension
  0
DIMENSION
  5
DD
100
AcDbEntity
  8
0
  6
ByLayer
 62
  256
370
   -1
100
AcDbDimension
  2
*D7
 10
93.53243109347871
 20
29.10285040279296
 30
0
 11
93.1324310934787
 21
20.10142520139648
 31
0
 70
   32
 71
    5
 72
    0
  3
Standard
 53
0
210
0
220
0
230
1
100
AcDbAlignedDimension
 13
84.8
 23
11.1
 33
0
 14
84.7046648836437
 24
29.10285040279296
 34
0
 50
90
100
AcDbRotatedDimension
  0
DIMENSION
  5
DE
100
AcDbEntity
  8
0
  6
ByLayer
 62
  256
370
   -1
100
AcDbDimension
  2
*D8
 10
85.3
 20
17.7
 30
0
 11
86.09999999999999
 21
18.1
 31
0
 70
   32
 71
    5
 72
    0
  3
Standard
 53
0
210
0
220
0
230
1
100
AcDbAlignedDimension
 13
86.90000000000001
 23
17.7
 33
0
 14
85.3
 24
17.9
 34
0
100
AcDbRotatedDimension
  0
LEADER
  5
DF
100
AcDbEntity
  8
0
  6
ByLayer
 62
  256
370
   -1
100
AcDbLeader
  3
Standard
 71
    1
 72
    0
 73
    3
 74
    0
 75
    0
 40
1
 41
10
 76
3
 76
3
 10
80.75
 20
28.5507041555162
 30
0
 10
80.09755614476371
 20
29.00511213933662
 30
0
 10
78.9297151179767
 20
29.00511213933662
 30
0
  0
LEADER
  5
E0
100
AcDbEntity
  8
0
  6
ByLayer
 62
  256
370
   -1
100
AcDbLeader
  3
Standard
 71
    1
 72
    0
 73
    3
 74
    0
 75
    0
 40
1
 41
10
 76
3
 76
3
 10
81.59999999999999
 20
27.07846096908265
 30
0
 10
81.0923836861008
 20
27.7651821602788
 30
0
 10
77.86279862436881
 20
27.86610669345792
 30
0
  0
LEADER
  5
E1
100
AcDbEntity
  8
0
  6
ByLayer
 62
  256
370
   -1
100
AcDbLeader
  3
Standard
 71
    1
 72
    0
 73
    3
 74
    0
 75
    0
 40
1
 41
10
 76
3
 76
3
 10
81
 20
25
 30
0
 10
78.39625687117275
 20
26.25131416259192
 30
0
 10
77.51677165346895
 20
26.25131416259192
 30
0
  0
LEADER
  5
E2
100
AcDbEntity
  8
0
  6
ByLayer
 62
  256
370
   -1
100
AcDbLeader
  3
Standard
 71
    1
 72
    0
 73
    3
 74
    0
 75
    0
 40
1
 41
10
 76
2
 76
2
 10
78.42
 20
12.94182069312383
 30
0
 10
75.13783622853244
 20
12.81393345931413
 30
0
  0
DIMENSION
  5
E3
100
AcDbEntity
  8
0
  6
ByLayer
 62
  256
370
   -1
100
AcDbDimension
  2
*D13
 10
82.8229231216105
 20
12.1
 30
0
 11
82.42292312161049
 21
14.5
 31
0
 70
   32
 71
    5
  3
Standard
 53
0
210
0
220
0
230
1
100
AcDbAlignedDimension
 13
81.96666666666667
 23
16.9
 33
0
 14
80.79999999999998
 24
12.1
 34
0
 50
90
100
AcDbRotatedDimension
  0
MTEXT
  5
E4
100
AcDbEntity
  8
0
  6
ByLayer
 62
  256
370
   -1
100
AcDbMText
 10
75.8229231216105
 20
13.36290908210681
 30
0
 40
0.4
 41
1.244444444444469
 71
    5
 72
    1
  1
%%C1.52
  7
STANDARD
210
0
220
0
230
1
 50
0
 73
    2
 44
0.1
  0
MTEXT
  5
E5
100
AcDbEntity
  8
0
  6
ByLayer
 62
  256
370
   -1
100
AcDbMText
 10
75.8229231216105
 20
13.36290908210681
 30
0
 40
0.4
 41
1.244444444444469
 71
    5
 72
    1
  1
%%C1.52
  7
STANDARD
210
0
220
0
230
1
 50
0
 73
    2
 44
0.1
  0
MTEXT
  5
E6
100
AcDbEntity
  8
0
  6
ByLayer
 62
  256
370
   -1
100
AcDbMText
 10
75.8229231216105
 20
14.36290908210681
 30
0
 40
0.4
 41
1.066666666666667
 71
    8
 72
    1
  1
%%C2.4
  7
STANDARD
210
0
220
0
230
1
 50
0
 73
    2
 44
0.1
  0
LEADER
  5
E7
100
AcDbEntity
  8
0
  6
ByLayer
 62
  256
370
   -1
100
AcDbLeader
  3
Standard
 71
    1
 72
    0
 73
    3
 74
    0
 75
    0
 40
1
 41
10
 76
3
 76
3
 10
77.76076951545868
 20
14.2
 30
0
 10
74.8229231216105
 20
14.36290908210681
 30
0
 10
74.8229231216105
 20
14.36290908210681
 30
0
  0
MTEXT
  5
E8
100
AcDbEntity
  8
0
  6
ByLayer
 62
  256
370
   -1
100
AcDbMText
 10
77.66094955801056
 20
25.86203382032958
 30
0
 40
0.4
 41
1.022222222222272
 71
    8
 72
    1
  1
%%C3.6
  7
STANDARD
210
0
220
0
230
1
 50
0
 73
    2
 44
0.1
  0
MTEXT
  5
E9
100
AcDbEntity
  8
0
  6
ByLayer
 62
  256
370
   -1
100
AcDbMText
 10
78.86231070045588
 20
27.8348719410802
 30
0
 40
0.4
 41
1.066666666666667
 71
    8
 72
    1
  1
%%C4.8
  7
STANDARD
210
0
220
0
230
1
 50
0
 73
    2
 44
0.1
  0
MTEXT
  5
EA
100
AcDbEntity
  8
0
  6
ByLayer
 62
  256
370
   -1
100
AcDbMText
 10
79.70827580250138
 20
29.20696120569487
 30
0
 40
0.4
 41
1.022222222222222
 71
    8
 72
    1
  1
%%C8.2
  7
STANDARD
210
0
220
0
230
1
 50
0
 73
    2
 44
0.1
  0
MTEXT
  5
EB
100
AcDbEntity
  8
0
  6
ByLayer
 62
  256
370
   -1
100
AcDbMText
 10
77.09999999999999
 20
16.7
 30
0
 40
0.4
 41
1.511111111111136
 71
    8
 72
    1
  1
2×R1.6
  7
STANDARD
210
0
220
0
230
1
 50
0
 73
    2
 44
0.1
  0
LEADER
  5
EC
100
AcDbEntity
  8
0
  6
ByLayer
 62
  256
370
   -1
100
AcDbLeader
  3
Standard
 71
    1
 72
    0
 73
    3
 74
    0
 75
    0
 40
1
 41
10
 76
3
 76
3
 10
78.03615563670473
 20
15.40245900879165
 30
0
 10
77.81820074111117
 20
16.35099003640556
 30
0
 10
76.44910140052092
 20
16.43396575401709
 30
0
  0
CIRCLE
  5
ED
100
AcDbEntity
  8
lay1
  6
ByLayer
 62
  256
370
   -1
100
AcDbCircle
 10
82.8
 20
25
 40
4.1
  0
CIRCLE
  5
EE
100
AcDbEntity
  8
lay1
  6
ByLayer
 62
  256
370
   -1
100
AcDbCircle
 10
82.8
 20
25
 40
2.4
  0
CIRCLE
  5
EF
100
AcDbEntity
  8
lay1
  6
ByLayer
 62
  256
370
   -1
100
AcDbCircle
 10
82.8
 20
25
 40
1.8
  0
LINE
  5
F0
100
AcDbEntity
  8
lay1
  6
ByLayer
 62
  256
370
   -1
100
AcDbLine
 10
76.79999999999998
 20
11.1
 11
88.8
 21
11.1
  0
LINE
  5
F1
100
AcDbEntity
  8
lay1
  6
ByLayer
 62
  256
370
   -1
100
AcDbLine
 10
76.79999999999998
 20
12.1
 11
88.8
 21
12.1
  0
LINE
  5
F2
100
AcDbEntity
  8
lay1
  6
ByLayer
 62
  256
370
   -1
100
AcDbLine
 10
76.79999999999998
 20
11.1
 11
76.79999999999998
 21
15.1
  0
LINE
  5
F3
100
AcDbEntity
  8
lay1
  6
ByLayer
 62
  256
370
   -1
100
AcDbLine
 10
88.8
 20
11.1
 11
88.8
 21
15.1
  0
LINE
  5
F4
100
AcDbEntity
  8
lay1
  6
ByLayer
 62
  256
370
   -1
100
AcDbLine
 10
76.79999999999998
 20
15.1
 11
77.09999999999999
 21
15.1
  0
LINE
  5
F5
100
AcDbEntity
  8
lay1
  6
ByLayer
 62
  256
370
   -1
100
AcDbLine
 10
78.7
 20
25
 11
78.7
 21
16.7
  0
ARC
  5
F6
100
AcDbEntity
  8
lay1
  6
ByLayer
 62
  256
370
   -1
100
AcDbCircle
 10
77.09999999999999
 20
16.7
 40
1.6
100
AcDbArc
 50
270
 51
0
  0
LINE
  5
F7
100
AcDbEntity
  8
lay1
  6
ByLayer
 62
  256
370
   -1
100
AcDbLine
 10
88.8
 20
15.1
 11
88.5
 21
15.1
  0
LINE
  5
F8
100
AcDbEntity
  8
lay1
  6
ByLayer
 62
  256
370
   -1
100
AcDbLine
 10
86.90000000000001
 20
25
 11
86.90000000000001
 21
16.7
  0
ARC
  5
F9
100
AcDbEntity
  8
lay1
  6
ByLayer
 62
  256
370
   -1
100
AcDbCircle
 10
88.5
 20
16.7
 40
1.6
100
AcDbArc
 50
180
 51
270
  0
LINE
  5
FA
100
AcDbEntity
  8
lay1
  6
ByLayer
 62
  256
370
   -1
100
AcDbLine
 10
80.3
 20
16.9
 11
85.3
 21
16.9
  0
ARC
  5
FB
100
AcDbEntity
  8
lay1
  6
ByLayer
 62
  256
370
   -1
100
AcDbCircle
 10
82.8
 20
23.11488095238042
 40
3.814880952380545
100
AcDbArc
 50
229.055440960511
 51
310.9445590394891
  0
LINE
  5
FC
100
AcDbEntity
  8
lay1
  6
ByLayer
 62
  256
370
   -1
100
AcDbLine
 10
80.3
 20
20.23333333333333
 11
80.3
 21
16.9
  0
LINE
  5
FD
100
AcDbEntity
  8
lay1
  6
ByLayer
 62
  256
370
   -1
100
AcDbLine
 10
85.3
 20
20.23333333333334
 11
85.3
 21
16.9
  0
CIRCLE
  5
FE
100
AcDbEntity
  8
lay1
  6
ByLayer
 62
  256
370
   -1
100
AcDbCircle
 10
86.8
 20
13.6
 40
1.2
  0
CIRCLE
  5
FF
100
AcDbEntity
  8
lay1
  6
ByLayer
 62
  256
370
   -1
100
AcDbCircle
 10
86.8
 20
13.6
 40
0.76
  0
CIRCLE
  5
100
100
AcDbEntity
  8
lay1
  6
ByLayer
 62
  256
370
   -1
100
AcDbCircle
 10
78.8
 20
13.6
 40
0.76
  0
CIRCLE
  5
101
100
AcDbEntity
  8
lay1
  6
ByLayer
 62
  256
370
   -1
100
AcDbCircle
 10
78.8
 20
13.6
 40
1.2
  0
MTEXT
  5
102
100
AcDbEntity
  8
lay1
  6
ByLayer
 62
  256
370
   -3
100
AcDbMText
 10
82.8229231216105
 20
25.36290908210681
 30
0
 40
4
 41
1.777777777777778
 71
    5
 72
    1
  1
+
  7
STANDARD
210
0
220
0
230
1
 50
0
 73
    2
 44
0
  0
LINE
  5
103
100
AcDbEntity
  8
lay1
  6
ByLayer
 62
  256
370
   -3
100
AcDbLine
 10
78
 20
13.6
 11
79.59999999999999
 21
13.6
  0
LINE
  5
104
100
AcDbEntity
  8
lay1
  6
ByLayer
 62
  256
370
   -3
100
AcDbLine
 10
78.8
 20
12.8
 11
78.8
 21
14.4
  0
ENDSEC
  0
SECTION
  2
OBJECTS
  0
DICTIONARY
  5
C
330
0
100
AcDbDictionary
281
    1
  3
ACAD_GROUP
350
D
  0
DICTIONARY
  5
D
330
C
100
AcDbDictionary
281
    1
  0
PLOTSETTINGS
  5
105
100
AcDbPlotSettings
  6
1x1
 40
0
 41
0
 42
0
 43
0
  0
ENDSEC
  0
EOF
