999
dxfrw 0.6.3
  0
SECTION
  2
HEADER
  9
$ACADVER
  1
AC1021
  9
$DWGCODEPAGE
  3
ANSI_1252
  9
$INSBASE
 10
0
 20
0
 30
0
  9
$EXTMIN
 10
-143.9399987964333
 20
-163.75
 30
0
  9
$EXTMAX
 10
221.8381014976678
 20
339.375
 30
0
  9
$LIMMIN
 10
0
 20
0
  9
$LIMMAX
 10
420
 20
297
  9
$ORTHOMODE
 70
    0
  9
$REGENMODE
 70
    1
  9
$FILLMODE
 70
    1
  9
$QTEXTMODE
 70
    0
  9
$MIRRTEXT
 70
    0
  9
$LTSCALE
 40
1
  9
$ATTMODE
 70
    0
  9
$TEXTSIZE
 40
2.5
  9
$TRACEWID
 40
15.68
  9
$TEXTSTYLE
  7
STANDARD
  9
$CLAYER
  8
draw
  9
$CELTYPE
  6
BYLAYER
  9
$CECOLOR
 62
  256
  9
$CELTSCALE
 40
1
  9
$DISPSILH
 70
    0
  9
$DIMSCALE
 40
3
  9
$DIMASZ
 40
4
  9
$DIMEXO
 40
0.625
  9
$DIMDLI
 40
3.75
  9
$DIMRND
 40
0
  9
$DIMDLE
 40
0
  9
$DIMEXE
 40
1.25
  9
$DIMTP
 40
0
  9
$DIMTM
 40
0
  9
$DIMTXT
 40
2.5
  9
$DIMCEN
 40
2.5
  9
$DIMTSZ
 40
0
  9
$DIMTOL
 70
    0
  9
$DIMLIM
 70
    0
  9
$DIMTIH
 70
    0
  9
$DIMTOH
 70
    0
  9
$DIMSE1
 70
    0
  9
$DIMSE2
 70
    0
  9
$DIMTAD
 70
    1
  9
$DIMZIN
 70
   11
  9
$DIMBLK
  1

  9
$DIMASO
 70
    1
  9
$DIMSHO
 70
    1
  9
$DIMPOST
  1

  9
$DIMAPOST
  1

  9
$DIMALT
 70
    0
  9
$DIMALTD
 70
    3
  9
$DIMALTF
 40
0.03937
  9
$DIMLFAC
 40
1
  9
$DIMTOFL
 70
    1
  9
$DIMTVP
 40
0
  9
$DIMTIX
 70
    0
  9
$DIMSOXD
 70
    0
  9
$DIMSAH
 70
    0
  9
$DIMBLK1
  1

  9
$DIMBLK2
  1

  9
$DIMSTYLE
  2
STANDARD
  9
$DIMCLRD
 70
    0
  9
$DIMCLRE
 70
    0
  9
$DIMCLRT
 70
    0
  9
$DIMTFAC
 40
1
  9
$DIMGAP
 40
0.625
  9
$DIMJUST
 70
    0
  9
$DIMSD1
 70
    0
  9
$DIMSD2
 70
    0
  9
$DIMTOLJ
 70
    0
  9
$DIMTZIN
 70
    8
  9
$DIMALTZ
 70
    0
  9
$DIMALTTZ
 70
    0
  9
$DIMUPT
 70
    0
  9
$DIMDEC
 70
    2
  9
$DIMTDEC
 70
    2
  9
$DIMALTU
 70
    2
  9
$DIMALTTD
 70
    3
  9
$DIMTXSTY
  7
standard
  9
$DIMAUNIT
 70
    0
  9
$DIMADEC
 70
    2
  9
$DIMALTRND
 40
0
  9
$DIMAZIN
 70
    0
  9
$DIMDSEP
 70
   44
  9
$DIMATFIT
 70
    3
  9
$DIMFRAC
 70
    0
  9
$DIMLDRBLK
  1
STANDARD
  9
$DIMLUNIT
 70
    2
  9
$DIMLWD
 70
   -2
  9
$DIMLWE
 70
   -2
  9
$DIMTMOVE
 70
    0
  9
$DIMFXL
 40
1
  9
$DIMFXLON
 70
    0
  9
$DIMJOGANG
 40
0.7854
  9
$DIMTFILL
 70
    0
  9
$DIMTFILLCLR
 70
    0
  9
$DIMARCSYM
 70
    0
  9
$DIMLTYPE
  6

  9
$DIMLTEX1
  6

  9
$DIMLTEX2
  6

  9
$LUNITS
 70
    2
  9
$LUPREC
 70
    4
  9
$SKETCHINC
 40
1
  9
$FILLETRAD
 40
0
  9
$AUNITS
 70
    0
  9
$AUPREC
 70
    2
  9
$MENU
  1
.
  9
$ELEVATION
 40
0
  9
$PELEVATION
 40
0
  9
$THICKNESS
 40
0
  9
$LIMCHECK
 70
    0
  9
$CHAMFERA
 40
0
  9
$CHAMFERB
 40
0
  9
$CHAMFERC
 40
0
  9
$CHAMFERD
 40
0
  9
$SKPOLY
 70
    0
  9
$USRTIMER
 70
    1
  9
$ANGBASE
 50
0
  9
$ANGDIR
 70
    0
  9
$PDMODE
 70
   34
  9
$PDSIZE
 40
0
  9
$PLINEWID
 40
0
  9
$SPLFRAME
 70
    0
  9
$SPLINETYPE
 70
    2
  9
$SPLINESEGS
 70
    8
  9
$HANDSEED
  5
20000
  9
$SURFTAB1
 70
    6
  9
$SURFTAB2
 70
    6
  9
$SURFTYPE
 70
    6
  9
$SURFU
 70
    6
  9
$SURFV
 70
    6
  9
$UCSBASE
  2

  9
$UCSNAME
  2

  9
$UCSORG
 10
0
 20
0
 30
0
  9
$UCSXDIR
 10
1
 20
0
 30
0
  9
$UCSYDIR
 10
0
 20
1
 30
0
  9
$UCSORTHOREF
  2

  9
$UCSORTHOVIEW
 70
    0
  9
$UCSORGTOP
 10
0
 20
0
 30
0
  9
$UCSORGBOTTOM
 10
0
 20
0
 30
0
  9
$UCSORGLEFT
 10
0
 20
0
 30
0
  9
$UCSORGRIGHT
 10
0
 20
0
 30
0
  9
$UCSORGFRONT
 10
0
 20
0
 30
0
  9
$UCSORGBACK
 10
0
 20
0
 30
0
  9
$PUCSBASE
  2

  9
$PUCSNAME
  2

  9
$PUCSORG
 10
0
 20
0
 30
0
  9
$PUCSXDIR
 10
1
 20
0
 30
0
  9
$PUCSYDIR
 10
0
 20
1
 30
0
  9
$PUCSORTHOREF
  2

  9
$PUCSORTHOVIEW
 70
    0
  9
$PUCSORGTOP
 10
0
 20
0
 30
0
  9
$PUCSORGBOTTOM
 10
0
 20
0
 30
0
  9
$PUCSORGLEFT
 10
0
 20
0
 30
0
  9
$PUCSORGRIGHT
 10
0
 20
0
 30
0
  9
$PUCSORGFRONT
 10
0
 20
0
 30
0
  9
$PUCSORGBACK
 10
0
 20
0
 30
0
  9
$USERI1
 70
    0
  9
$USERI2
 70
    0
  9
$USERI3
 70
    0
  9
$USERI4
 70
    0
  9
$USERI5
 70
    0
  9
$USERR1
 40
0
  9
$USERR2
 40
0
  9
$USERR3
 40
0
  9
$USERR4
 40
0
  9
$USERR5
 40
0
  9
$WORLDVIEW
 70
    1
  9
$SHADEDGE
 70
    3
  9
$SHADEDIF
 70
   70
  9
$TILEMODE
 70
    1
  9
$MAXACTVP
 70
   64
  9
$PINSBASE
 10
82.63862632275385
 20
98.08521304262625
 30
0
  9
$PLIMCHECK
 70
    0
  9
$PEXTMIN
 10
0
 20
0
 30
0
  9
$PEXTMAX
 10
0
 20
0
 30
0
  9
$GRIDMODE
 70
    1
  9
$SNAPSTYLE
 70
    0
  9
$GRIDUNIT
 10
0
 20
0
  9
$PLIMMIN
 10
0
 20
0
  9
$PLIMMAX
 10
210
 20
297
  9
$UNITMODE
 70
    0
  9
$VISRETAIN
 70
    1
  9
$PLINEGEN
 70
    0
  9
$PSLTSCALE
 70
    1
  9
$TREEDEPTH
 70
 3020
  9
$CMLSTYLE
  2
Standard
  9
$CMLJUST
 70
    0
  9
$CMLSCALE
 40
20
  9
$PROXYGRAPHICS
 70
    1
  9
$MEASUREMENT
 70
    1
  9
$CELWEIGHT
370
   -1
  9
$ENDCAPS
280
    0
  9
$JOINSTYLE
280
    0
  9
$LWDISPLAY
290
    0
  9
$INSUNITS
 70
    0
  9
$HYPERLINKBASE
  1

  9
$STYLESHEET
  1

  9
$XEDIT
290
    1
  9
$CEPSNTYPE
380
    0
  9
$PSTYLEMODE
290
    1
  9
$EXTNAMES
290
    1
  9
$PSVPSCALE
 40
0.5741187277528993
  9
$OLESTARTUP
290
    0
  9
$SORTENTS
280
  127
  9
$INDEXCTL
280
    0
  9
$HIDETEXT
280
    1
  9
$XCLIPFRAME
290
    0
  9
$HALOGAP
280
    0
  9
$OBSCOLOR
 70
  257
  9
$OBSLTYPE
280
    0
  9
$INTERSECTIONDISPLAY
280
    0
  9
$INTERSECTIONCOLOR
 70
  257
  9
$DIMASSOC
280
    1
  9
$PROJECTNAME
  1

  9
$CAMERADISPLAY
290
    0
  9
$LENSLENGTH
 40
50
  9
$CAMERAHEIGHT
 40
0
  9
$STEPSPERSEC
 40
2
  9
$STEPSIZE
 40
50
  9
$3DDWFPREC
 40
2
  9
$PSOLWIDTH
 40
5
  9
$PSOLHEIGHT
 40
80
  9
$LOFTANG1
 40
1.570796326794897
  9
$LOFTANG2
 40
1.570796326794897
  9
$LOFTMAG1
 40
0
  9
$LOFTMAG2
 40
0
  9
$LOFTPARAM
 70
    7
  9
$LOFTNORMALS
280
    1
  9
$LATITUDE
 40
1
  9
$LONGITUDE
 40
1
  9
$NORTHDIRECTION
 40
0
  9
$TIMEZONE
 70
-8000
  9
$LIGHTGLYPHDISPLAY
280
    1
  9
$TILEMODELIGHTSYNCH
280
    1
  9
$SOLIDHIST
280
    1
  9
$SHOWHIST
280
    1
  9
$DWFFRAME
280
    2
  9
$DGNFRAME
280
    0
  9
$REALWORLDSCALE
290
    1
  9
$INTERFERECOLOR
 62
    1
  9
$CSHADOW
280
    0
  9
$SHADOWPLANELOCATION
 40
0
  0
ENDSEC
  0
SECTION
  2
CLASSES
  0
ENDSEC
  0
SECTION
  2
TABLES
  0
TABLE
  2
VPORT
  5
8
330
0
100
AcDbSymbolTable
 70
    1
  0
VPORT
  5
31
330
2
100
AcDbSymbolTableRecord
100
AcDbViewportTableRecord
  2
*ACTIVE
 70
    0
 10
0
 20
0
 11
1
 21
1
 12
241.3585599505982
 22
185.4813370681446
 13
0
 23
0
 14
10
 24
10
 15
10
 25
10
 16
0
 26
0
 36
1
 17
0
 27
0
 37
0
 40
593.6954931260696
 41
1.713725490196078
 42
50
 43
0
 44
0
 50
0
 51
0
 71
    0
 72
  100
 73
    1
 74
    3
 75
    0
 76
    1
 77
    0
 78
    0
281
    0
 65
    1
110
0
120
0
130
0
111
1
121
0
131
0
112
0
122
1
132
0
 79
    0
146
0
348
10020
 60
    7
 61
    5
292
1
282
    1
141
0
142
0
 63
  250
421
3358443
  0
ENDTAB
  0
TABLE
  2
LTYPE
  5
5
330
0
100
AcDbSymbolTable
 70
    4
  0
LTYPE
  5
14
330
5
100
AcDbSymbolTableRecord
100
AcDbLinetypeTableRecord
  2
ByBlock
 70
    0
  3

 72
   65
 73
    0
 40
0
  0
LTYPE
  5
15
330
5
100
AcDbSymbolTableRecord
100
AcDbLinetypeTableRecord
  2
ByLayer
 70
    0
  3

 72
   65
 73
    0
 40
0
  0
LTYPE
  5
16
330
5
100
AcDbSymbolTableRecord
100
AcDbLinetypeTableRecord
  2
Continuous
 70
    0
  3
Solid line
 72
   65
 73
    0
 40
0
  0
LTYPE
  5
32
330
5
100
AcDbSymbolTableRecord
100
AcDbLinetypeTableRecord
  2
DOT
 70
    0
  3
Dot . . . . . . . . . . . . . . . . . . . . . .
 72
   65
 73
    2
 40
6.35
 49
0
 74
    0
 49
-6.35
 74
    0
  0
LTYPE
  5
33
330
5
100
AcDbSymbolTableRecord
100
AcDbLinetypeTableRecord
  2
DOTTINY
 70
    0
  3
Dot (.15x) .....................................
 72
   65
 73
    2
 40
0.9525
 49
0
 74
    0
 49
-0.9525
 74
    0
  0
LTYPE
  5
34
330
5
100
AcDbSymbolTableRecord
100
AcDbLinetypeTableRecord
  2
DOT2
 70
    0
  3
Dot (.5x) .....................................
 72
   65
 73
    2
 40
3.175
 49
0
 74
    0
 49
-3.175
 74
    0
  0
LTYPE
  5
35
330
5
100
AcDbSymbolTableRecord
100
AcDbLinetypeTableRecord
  2
DOTX2
 70
    0
  3
Dot (2x) .  .  .  .  .  .  .  .  .  .  .  .  .
 72
   65
 73
    2
 40
12.7
 49
0
 74
    0
 49
-12.7
 74
    0
  0
LTYPE
  5
36
330
5
100
AcDbSymbolTableRecord
100
AcDbLinetypeTableRecord
  2
DASHED
 70
    0
  3
Dashed _ _ _ _ _ _ _ _ _ _ _ _ _ _ _ _ _
 72
   65
 73
    2
 40
19.05
 49
12.7
 74
    0
 49
-6.35
 74
    0
  0
LTYPE
  5
37
330
5
100
AcDbSymbolTableRecord
100
AcDbLinetypeTableRecord
  2
DASHEDTINY
 70
    0
  3
Dashed (.15x) _ _ _ _ _ _ _ _ _ _ _ _ _ _ _ _ _
 72
   65
 73
    2
 40
2.8575
 49
1.905
 74
    0
 49
-0.9525
 74
    0
  0
LTYPE
  5
38
330
5
100
AcDbSymbolTableRecord
100
AcDbLinetypeTableRecord
  2
DASHED2
 70
    0
  3
Dashed (.5x) _ _ _ _ _ _ _ _ _ _ _ _ _ _ _ _ _
 72
   65
 73
    2
 40
9.524999999999999
 49
6.35
 74
    0
 49
-3.175
 74
    0
  0
LTYPE
  5
39
330
5
100
AcDbSymbolTableRecord
100
AcDbLinetypeTableRecord
  2
DASHEDX2
 70
    0
  3
Dashed (2x) ____  ____  ____  ____  ____  ___
 72
   65
 73
    2
 40
38.09999999999999
 49
25.4
 74
    0
 49
-12.7
 74
    0
  0
LTYPE
  5
3A
330
5
100
AcDbSymbolTableRecord
100
AcDbLinetypeTableRecord
  2
DASHDOT
 70
    0
  3
Dash dot __ . __ . __ . __ . __ . __ . __ . __
 72
   65
 73
    4
 40
25.4
 49
12.7
 74
    0
 49
-6.35
 74
    0
 49
0
 74
    0
 49
-6.35
 74
    0
  0
LTYPE
  5
3B
330
5
100
AcDbSymbolTableRecord
100
AcDbLinetypeTableRecord
  2
DASHDOTTINY
 70
    0
  3
Dash dot (.15x) _._._._._._._._._._._._._._._.
 72
   65
 73
    4
 40
3.81
 49
1.905
 74
    0
 49
-0.9525
 74
    0
 49
0
 74
    0
 49
-0.9525
 74
    0
  0
LTYPE
  5
3C
330
5
100
AcDbSymbolTableRecord
100
AcDbLinetypeTableRecord
  2
DASHDOT2
 70
    0
  3
Dash dot (.5x) _._._._._._._._._._._._._._._.
 72
   65
 73
    4
 40
12.7
 49
6.35
 74
    0
 49
-3.175
 74
    0
 49
0
 74
    0
 49
-3.175
 74
    0
  0
LTYPE
  5
3D
330
5
100
AcDbSymbolTableRecord
100
AcDbLinetypeTableRecord
  2
DASHDOTX2
 70
    0
  3
Dash dot (2x) ____  .  ____  .  ____  .  ___
 72
   65
 73
    4
 40
50.8
 49
25.4
 74
    0
 49
-12.7
 74
    0
 49
0
 74
    0
 49
-12.7
 74
    0
  0
LTYPE
  5
3E
330
5
100
AcDbSymbolTableRecord
100
AcDbLinetypeTableRecord
  2
DIVIDE
 70
    0
  3
Divide ____ . . ____ . . ____ . . ____ . . ____
 72
   65
 73
    6
 40
31.75
 49
12.7
 74
    0
 49
-6.35
 74
    0
 49
0
 74
    0
 49
-6.35
 74
    0
 49
0
 74
    0
 49
-6.35
 74
    0
  0
LTYPE
  5
3F
330
5
100
AcDbSymbolTableRecord
100
AcDbLinetypeTableRecord
  2
DIVIDETINY
 70
    0
  3
Divide (.15x) __..__..__..__..__..__..__..__.._
 72
   65
 73
    6
 40
4.7625
 49
1.905
 74
    0
 49
-0.9525
 74
    0
 49
0
 74
    0
 49
-0.9525
 74
    0
 49
0
 74
    0
 49
-0.9525
 74
    0
  0
LTYPE
  5
40
330
5
100
AcDbSymbolTableRecord
100
AcDbLinetypeTableRecord
  2
DIVIDE2
 70
    0
  3
Divide (.5x) __..__..__..__..__..__..__..__.._
 72
   65
 73
    6
 40
15.875
 49
6.35
 74
    0
 49
-3.175
 74
    0
 49
0
 74
    0
 49
-3.175
 74
    0
 49
0
 74
    0
 49
-3.175
 74
    0
  0
LTYPE
  5
41
330
5
100
AcDbSymbolTableRecord
100
AcDbLinetypeTableRecord
  2
DIVIDEX2
 70
    0
  3
Divide (2x) ________  .  .  ________  .  .  _
 72
   65
 73
    6
 40
63.5
 49
25.4
 74
    0
 49
-12.7
 74
    0
 49
0
 74
    0
 49
-12.7
 74
    0
 49
0
 74
    0
 49
-12.7
 74
    0
  0
LTYPE
  5
42
330
5
100
AcDbSymbolTableRecord
100
AcDbLinetypeTableRecord
  2
BORDER
 70
    0
  3
Border __ __ . __ __ . __ __ . __ __ . __ __ .
 72
   65
 73
    6
 40
44.45
 49
12.7
 74
    0
 49
-6.35
 74
    0
 49
12.7
 74
    0
 49
-6.35
 74
    0
 49
0
 74
    0
 49
-6.35
 74
    0
  0
LTYPE
  5
43
330
5
100
AcDbSymbolTableRecord
100
AcDbLinetypeTableRecord
  2
BORDERTINY
 70
    0
  3
Border (.15x) __.__.__.__.__.__.__.__.__.__.__.
 72
   65
 73
    6
 40
6.6675
 49
1.905
 74
    0
 49
-0.9525
 74
    0
 49
1.905
 74
    0
 49
-0.9525
 74
    0
 49
0
 74
    0
 49
-0.9525
 74
    0
  0
LTYPE
  5
44
330
5
100
AcDbSymbolTableRecord
100
AcDbLinetypeTableRecord
  2
BORDER2
 70
    0
  3
Border (.5x) __.__.__.__.__.__.__.__.__.__.__.
 72
   65
 73
    6
 40
22.225
 49
6.35
 74
    0
 49
-3.175
 74
    0
 49
6.35
 74
    0
 49
-3.175
 74
    0
 49
0
 74
    0
 49
-3.175
 74
    0
  0
LTYPE
  5
45
330
5
100
AcDbSymbolTableRecord
100
AcDbLinetypeTableRecord
  2
BORDERX2
 70
    0
  3
Border (2x) ____  ____  .  ____  ____  .  ___
 72
   65
 73
    6
 40
88.89999999999999
 49
25.4
 74
    0
 49
-12.7
 74
    0
 49
25.4
 74
    0
 49
-12.7
 74
    0
 49
0
 74
    0
 49
-12.7
 74
    0
  0
LTYPE
  5
46
330
5
100
AcDbSymbolTableRecord
100
AcDbLinetypeTableRecord
  2
CENTER
 70
    0
  3
Center ____ _ ____ _ ____ _ ____ _ ____ _ ____
 72
   65
 73
    4
 40
50.8
 49
31.75
 74
    0
 49
-6.35
 74
    0
 49
6.35
 74
    0
 49
-6.35
 74
    0
  0
LTYPE
  5
47
330
5
100
AcDbSymbolTableRecord
100
AcDbLinetypeTableRecord
  2
CENTERTINY
 70
    0
  3
Center (.15x) ___ _ ___ _ ___ _ ___ _ ___ _ ___
 72
   65
 73
    4
 40
7.619999999999999
 49
4.7625
 74
    0
 49
-0.9525
 74
    0
 49
0.9525
 74
    0
 49
-0.9525
 74
    0
  0
LTYPE
  5
48
330
5
100
AcDbSymbolTableRecord
100
AcDbLinetypeTableRecord
  2
CENTER2
 70
    0
  3
Center (.5x) ___ _ ___ _ ___ _ ___ _ ___ _ ___
 72
   65
 73
    4
 40
28.575
 49
19.05
 74
    0
 49
-3.175
 74
    0
 49
3.175
 74
    0
 49
-3.175
 74
    0
  0
LTYPE
  5
49
330
5
100
AcDbSymbolTableRecord
100
AcDbLinetypeTableRecord
  2
CENTERX2
 70
    0
  3
Center (2x) ________  __  ________  __  _____
 72
   65
 73
    4
 40
101.6
 49
63.5
 74
    0
 49
-12.7
 74
    0
 49
12.7
 74
    0
 49
-12.7
 74
    0
  0
ENDTAB
  0
TABLE
  2
LAYER
  5
2
330
0
100
AcDbSymbolTable
 70
    1
  0
LAYER
  5
10
330
2
100
AcDbSymbolTableRecord
100
AcDbLayerTableRecord
  2
0
 70
    0
 62
    7
  6
CONTINUOUS
370
   20
390
F
  0
LAYER
  5
4A
330
2
100
AcDbSymbolTableRecord
100
AcDbLayerTableRecord
  2
draw
 70
    0
 62
    7
  6
CONTINUOUS
370
   -3
390
F
  0
ENDTAB
  0
TABLE
  2
STYLE
  5
3
330
0
100
AcDbSymbolTable
 70
    3
  0
STYLE
  5
4B
330
2
100
AcDbSymbolTableRecord
100
AcDbTextStyleTableRecord
  2
Standard
 70
    0
 40
0
 41
1
 50
0
 71
    0
 42
1
  3
txt
  4

  0
ENDTAB
  0
TABLE
  2
VIEW
  5
6
330
0
100
AcDbSymbolTable
 70
    0
  0
ENDTAB
  0
TABLE
  2
UCS
  5
7
330
0
100
AcDbSymbolTable
 70
    0
  0
ENDTAB
  0
TABLE
  2
APPID
  5
9
330
0
100
AcDbSymbolTable
 70
    1
  0
APPID
  5
12
330
9
100
AcDbSymbolTableRecord
100
AcDbRegAppTableRecord
  2
ACAD
 70
    0
  0
APPID
  5
4C
330
9
100
AcDbSymbolTableRecord
100
AcDbRegAppTableRecord
  2
LibreCad
 70
    0
  0
ENDTAB
  0
TABLE
  2
DIMSTYLE
  5
A
330
0
100
AcDbSymbolTable
 70
    1
100
AcDbDimStyleTable
 71
    1
  0
DIMSTYLE
105
4D
330
A
100
AcDbSymbolTableRecord
100
AcDbDimStyleTableRecord
  2
Standard
 70
    0
 40
3
 41
4
 42
0.625
 43
0.38
 44
1.25
 45
0
 46
0
 47
0
 48
0
 49
1
140
2.5
141
0.09
142
0
143
25.4
144
1
145
0
146
1
147
0.625
148
0
 71
    0
 72
    0
 73
    0
 74
    1
 75
    0
 76
    0
 77
    0
 78
   11
 79
    0
170
    0
171
    2
172
    0
173
    0
174
    0
175
    0
176
    0
177
    0
178
    0
179
    2
271
    2
272
    4
273
    2
274
    2
275
    0
276
    0
277
    2
278
   44
279
    0
280
    0
281
    0
282
    0
283
    1
284
    0
285
    0
286
    0
288
    0
289
    3
340
standard
341

371
   -2
372
   -2
  0
ENDTAB
  0
TABLE
  2
BLOCK_RECORD
  5
1
330
0
100
AcDbSymbolTable
 70
    2
  0
BLOCK_RECORD
  5
1F
330
1
100
AcDbSymbolTableRecord
100
AcDbBlockTableRecord
  2
*Model_Space
 70
    0
280
    1
281
    0
  0
BLOCK_RECORD
  5
1E
330
1
100
AcDbSymbolTableRecord
100
AcDbBlockTableRecord
  2
*Paper_Space
 70
    0
280
    1
281
    0
  0
BLOCK_RECORD
  5
4E
330
1
100
AcDbSymbolTableRecord
100
AcDbBlockTableRecord
  2
*D1
 70
    0
280
    1
281
    0
  0
BLOCK_RECORD
  5
51
330
1
100
AcDbSymbolTableRecord
100
AcDbBlockTableRecord
  2
*D13
 70
    0
280
    1
281
    0
  0
BLOCK_RECORD
  5
54
330
1
100
AcDbSymbolTableRecord
100
AcDbBlockTableRecord
  2
*D20
 70
    0
280
    1
281
    0
  0
BLOCK_RECORD
  5
57
330
1
100
AcDbSymbolTableRecord
100
AcDbBlockTableRecord
  2
*D14
 70
    0
280
    1
281
    0
  0
BLOCK_RECORD
  5
5A
330
1
100
AcDbSymbolTableRecord
100
AcDbBlockTableRecord
  2
*D3
 70
    0
280
    1
281
    0
  0
BLOCK_RECORD
  5
5D
330
1
100
AcDbSymbolTableRecord
100
AcDbBlockTableRecord
  2
*D6
 70
    0
280
    1
281
    0
  0
BLOCK_RECORD
  5
60
330
1
100
AcDbSymbolTableRecord
100
AcDbBlockTableRecord
  2
*D18
 70
    0
280
    1
281
    0
  0
BLOCK_RECORD
  5
63
330
1
100
AcDbSymbolTableRecord
100
AcDbBlockTableRecord
  2
*D19
 70
    0
280
    1
281
    0
  0
BLOCK_RECORD
  5
66
330
1
100
AcDbSymbolTableRecord
100
AcDbBlockTableRecord
  2
*D11
 70
    0
280
    1
281
    0
  0
BLOCK_RECORD
  5
69
330
1
100
AcDbSymbolTableRecord
100
AcDbBlockTableRecord
  2
*D4
 70
    0
280
    1
281
    0
  0
BLOCK_RECORD
  5
6C
330
1
100
AcDbSymbolTableRecord
100
AcDbBlockTableRecord
  2
*D15
 70
    0
280
    1
281
    0
  0
BLOCK_RECORD
  5
6F
330
1
100
AcDbSymbolTableRecord
100
AcDbBlockTableRecord
  2
*D8
 70
    0
280
    1
281
    0
  0
BLOCK_RECORD
  5
72
330
1
100
AcDbSymbolTableRecord
100
AcDbBlockTableRecord
  2
*D10
 70
    0
280
    1
281
    0
  0
BLOCK_RECORD
  5
75
330
1
100
AcDbSymbolTableRecord
100
AcDbBlockTableRecord
  2
*D17
 70
    0
280
    1
281
    0
  0
BLOCK_RECORD
  5
78
330
1
100
AcDbSymbolTableRecord
100
AcDbBlockTableRecord
  2
*D7
 70
    0
280
    1
281
    0
  0
BLOCK_RECORD
  5
7B
330
1
100
AcDbSymbolTableRecord
100
AcDbBlockTableRecord
  2
*D5
 70
    0
280
    1
281
    0
  0
BLOCK_RECORD
  5
7E
330
1
100
AcDbSymbolTableRecord
100
AcDbBlockTableRecord
  2
*D16
 70
    0
280
    1
281
    0
  0
BLOCK_RECORD
  5
81
330
1
100
AcDbSymbolTableRecord
100
AcDbBlockTableRecord
  2
*D12
 70
    0
280
    1
281
    0
  0
BLOCK_RECORD
  5
84
330
1
100
AcDbSymbolTableRecord
100
AcDbBlockTableRecord
  2
*D9
 70
    0
280
    1
281
    0
  0
BLOCK_RECORD
  5
87
330
1
100
AcDbSymbolTableRecord
100
AcDbBlockTableRecord
  2
*D2
 70
    0
280
    1
281
    0
  0
ENDTAB
  0
ENDSEC
  0
SECTION
  2
BLOCKS
  0
BLOCK
  5
20
330
1F
100
AcDbEntity
  8
0
100
AcDbBlockBegin
  2
*Model_Space
 70
    0
 10
0
 20
0
 30
0
  3
*Model_Space
  1

  0
ENDBLK
  5
21
330
1F
100
AcDbEntity
  8
0
100
AcDbBlockEnd
  0
BLOCK
  5
1C
330
1B
100
AcDbEntity
  8
0
100
AcDbBlockBegin
  2
*Paper_Space
 70
    0
 10
0
 20
0
 30
0
  3
*Paper_Space
  1

  0
ENDBLK
  5
1D
330
1F
100
AcDbEntity
  8
0
100
AcDbBlockEnd
  0
BLOCK
  5
4F
330
4E
100
AcDbEntity
  8
0
100
AcDbBlockBegin
  2
*D1
 70
    1
 10
0
 20
0
  3
*D1
  1

  0
LINE
  5
8A
100
AcDbEntity
  8
draw
  6
ByBlock
 62
    0
370
   -2
100
AcDbLine
 10
-133.984977249897
 20
-1
 11
-133.984977249897
 21
-140.9973689736311
  0
MTEXT
  5
8B
100
AcDbEntity
  8
draw
  6
CONTINUOUS
 62
    0
370
   -2
100
AcDbMText
 10
-139.609977249897
 20
-70.99868448681556
 30
0
 40
7.5
 41
14.16666666666667
 71
    5
 72
    1
  1
140
  7
standard
210
0
220
0
230
1
 50
90
 73
    2
 44
1
  0
SOLID
  5
8C
100
AcDbEntity
  8
draw
  6
ByBlock
 62
    0
370
   -2
100
AcDbTrace
 10
-133.984977249897
 20
-1
 30
0
 11
-131.9868108925874
 21
-13
 31
0
 12
-135.9831436072066
 22
-13
 32
0
 13
-135.9831436072066
 23
-13
 33
0
  0
SOLID
  5
8D
100
AcDbEntity
  8
draw
  6
ByBlock
 62
    0
370
   -2
100
AcDbTrace
 10
-133.984977249897
 20
-140.9973689736311
 30
0
 11
-135.9831436072066
 21
-128.9973689736311
 31
0
 12
-131.9868108925874
 22
-128.9973689736311
 32
0
 13
-131.9868108925874
 23
-128.9973689736311
 33
0
  0
LINE
  5
8E
100
AcDbEntity
  8
draw
  6
ByBlock
 62
    0
370
   -2
100
AcDbLine
 10
18.125
 20
-1.000000000000005
 11
-137.734977249897
 21
-0.9999999999999996
  0
LINE
  5
8F
100
AcDbEntity
  8
draw
  6
ByBlock
 62
    0
370
   -2
100
AcDbLine
 10
18.99201077991805
 20
-140.9973689736311
 11
-137.734977249897
 21
-140.9973689736311
  0
ENDBLK
  5
50
330
4E
100
AcDbEntity
  8
0
100
AcDbBlockEnd
  0
BLOCK
  5
52
330
51
100
AcDbEntity
  8
0
100
AcDbBlockBegin
  2
*D13
 70
    1
 10
0
 20
0
  3
*D13
  1

  0
LINE
  5
90
100
AcDbEntity
  8
draw
  6
ByBlock
 62
    0
370
   -2
100
AcDbLine
 10
-24
 20
310
 11
34
 21
310
  0
MTEXT
  5
91
100
AcDbEntity
  8
draw
  6
CONTINUOUS
 62
    0
370
   -2
100
AcDbMText
 10
5
 20
315.625
 30
0
 40
7.5
 41
7.5
 71
    5
 72
    1
  1
10
  7
standard
210
0
220
0
230
1
 50
0
 73
    2
 44
1
  0
SOLID
  5
92
100
AcDbEntity
  8
draw
  6
ByBlock
 62
    0
370
   -2
100
AcDbTrace
 10
0
 20
310
 30
0
 11
-12
 21
308.0018336426904
 31
0
 12
-12
 22
311.9981663573096
 32
0
 13
-12
 23
311.9981663573096
 33
0
  0
SOLID
  5
93
100
AcDbEntity
  8
draw
  6
ByBlock
 62
    0
370
   -2
100
AcDbTrace
 10
10
 20
310
 30
0
 11
22
 21
311.9981663573096
 31
0
 12
22
 22
308.0018336426904
 32
0
 13
22
 23
308.0018336426904
 33
0
  0
LINE
  5
94
100
AcDbEntity
  8
draw
  6
ByBlock
 62
    0
370
   -2
100
AcDbLine
 10
1.148106374200644e-16
 20
301.875
 11
2.296212748401287e-16
 21
313.75
  0
LINE
  5
95
100
AcDbEntity
  8
draw
  6
ByBlock
 62
    0
370
   -2
100
AcDbLine
 10
10
 20
301.875
 11
10
 21
313.75
  0
ENDBLK
  5
53
330
51
100
AcDbEntity
  8
0
100
AcDbBlockEnd
  0
BLOCK
  5
55
330
54
100
AcDbEntity
  8
0
100
AcDbBlockBegin
  2
*D20
 70
    1
 10
0
 20
0
  3
*D20
  1

  0
LINE
  5
96
100
AcDbEntity
  8
draw
  6
CONTINUOUS
 62
    7
370
    0
100
AcDbLine
 10
30.00000000000002
 20
290
 11
30
 21
140
  0
LINE
  5
97
100
AcDbEntity
  8
draw
  6
CONTINUOUS
 62
    7
370
    0
100
AcDbLine
 10
30
 20
140
 11
140
 21
140
  0
SOLID
  5
98
100
AcDbEntity
  8
draw
  6
CONTINUOUS
 62
    7
370
    0
100
AcDbTrace
 10
30.00000000000002
 20
290
 30
0
 11
31.99816635730965
 21
278
 31
0
 12
28.00183364269038
 22
278
 32
0
 13
28.00183364269038
 23
278
 33
0
  0
ENDBLK
  5
56
330
54
100
AcDbEntity
  8
0
100
AcDbBlockEnd
  0
BLOCK
  5
58
330
57
100
AcDbEntity
  8
0
100
AcDbBlockBegin
  2
*D14
 70
    1
 10
0
 20
0
  3
*D14
  1

  0
LINE
  5
99
100
AcDbEntity
  8
draw
  6
ByBlock
 62
    0
370
   -2
100
AcDbLine
 10
-14
 20
310
 11
44
 21
310
  0
MTEXT
  5
9A
100
AcDbEntity
  8
draw
  6
CONTINUOUS
 62
    0
370
   -2
100
AcDbMText
 10
15
 20
315.625
 30
0
 40
7.5
 41
7.5
 71
    5
 72
    1
  1
10
  7
standard
210
0
220
0
230
1
 50
0
 73
    2
 44
1
  0
SOLID
  5
9B
100
AcDbEntity
  8
draw
  6
ByBlock
 62
    0
370
   -2
100
AcDbTrace
 10
10
 20
310
 30
0
 11
-2
 21
308.0018336426904
 31
0
 12
-2
 22
311.9981663573096
 32
0
 13
-2
 23
311.9981663573096
 33
0
  0
SOLID
  5
9C
100
AcDbEntity
  8
draw
  6
ByBlock
 62
    0
370
   -2
100
AcDbTrace
 10
20
 20
310
 30
0
 11
32
 21
311.9981663573096
 31
0
 12
32
 22
308.0018336426904
 32
0
 13
32
 23
308.0018336426904
 33
0
  0
LINE
  5
9D
100
AcDbEntity
  8
draw
  6
ByBlock
 62
    0
370
   -2
100
AcDbLine
 10
10
 20
291.875
 11
10
 21
313.75
  0
LINE
  5
9E
100
AcDbEntity
  8
draw
  6
ByBlock
 62
    0
370
   -2
100
AcDbLine
 10
20
 20
291.875
 11
20
 21
313.75
  0
ENDBLK
  5
59
330
57
100
AcDbEntity
  8
0
100
AcDbBlockEnd
  0
BLOCK
  5
5B
330
5A
100
AcDbEntity
  8
0
100
AcDbBlockBegin
  2
*D3
 70
    1
 10
0
 20
0
  3
*D3
  1

  0
LINE
  5
9F
100
AcDbEntity
  8
draw
  6
ByBlock
 62
    0
370
   -2
100
AcDbLine
 10
-134.5649987964333
 20
0
 11
-134.5649987964333
 21
300
  0
MTEXT
  5
A0
100
AcDbEntity
  8
draw
  6
CONTINUOUS
 62
    0
370
   -2
100
AcDbMText
 10
-140.1899987964333
 20
150
 30
0
 40
7.5
 41
15.00000000000047
 71
    5
 72
    1
  1
300
  7
standard
210
0
220
0
230
1
 50
90
 73
    2
 44
1
  0
SOLID
  5
A1
100
AcDbEntity
  8
draw
  6
ByBlock
 62
    0
370
   -2
100
AcDbTrace
 10
-134.5649987964333
 20
0
 30
0
 11
-136.563165153743
 21
12
 31
0
 12
-132.5668324391237
 22
12
 32
0
 13
-132.5668324391237
 23
12
 33
0
  0
SOLID
  5
A2
100
AcDbEntity
  8
draw
  6
ByBlock
 62
    0
370
   -2
100
AcDbTrace
 10
-134.5649987964333
 20
300
 30
0
 11
-132.5668324391237
 21
288
 31
0
 12
-136.563165153743
 22
288
 32
0
 13
-136.563165153743
 23
288
 33
0
  0
LINE
  5
A3
100
AcDbEntity
  8
draw
  6
ByBlock
 62
    0
370
   -2
100
AcDbLine
 10
-1.875
 20
2.296212748401287e-16
 11
-138.3149987964333
 21
4.592425496802575e-16
  0
LINE
  5
A4
100
AcDbEntity
  8
draw
  6
ByBlock
 62
    0
370
   -2
100
AcDbLine
 10
-1.874999999999982
 20
300
 11
-138.3149987964333
 21
300
  0
ENDBLK
  5
5C
330
5A
100
AcDbEntity
  8
0
100
AcDbBlockEnd
  0
BLOCK
  5
5E
330
5D
100
AcDbEntity
  8
0
100
AcDbBlockBegin
  2
*D6
 70
    1
 10
0
 20
0
  3
*D6
  1

  0
LINE
  5
A5
100
AcDbEntity
  8
draw
  6
ByBlock
 62
    0
370
   -2
100
AcDbLine
 10
156.0257960182783
 20
280
 11
156.0257960182783
 21
230
  0
MTEXT
  5
A6
100
AcDbEntity
  8
draw
  6
CONTINUOUS
 62
    0
370
   -2
100
AcDbMText
 10
150.4007960182783
 20
255
 30
0
 40
7.5
 41
9.166666666667133
 71
    5
 72
    1
  1
50
  7
standard
210
0
220
0
230
1
 50
90
 73
    2
 44
1
  0
SOLID
  5
A7
100
AcDbEntity
  8
draw
  6
ByBlock
 62
    0
370
   -2
100
AcDbTrace
 10
156.0257960182783
 20
280
 30
0
 11
158.0239623755879
 21
268
 31
0
 12
154.0276296609687
 22
268
 32
0
 13
154.0276296609687
 23
268
 33
0
  0
SOLID
  5
A8
100
AcDbEntity
  8
draw
  6
ByBlock
 62
    0
370
   -2
100
AcDbTrace
 10
156.0257960182783
 20
230
 30
0
 11
154.0276296609687
 21
242
 31
0
 12
158.0239623755879
 22
242
 32
0
 13
158.0239623755879
 23
242
 33
0
  0
LINE
  5
A9
100
AcDbEntity
  8
draw
  6
ByBlock
 62
    0
370
   -2
100
AcDbLine
 10
111.875
 20
280
 11
159.7757960182783
 21
280
  0
LINE
  5
AA
100
AcDbEntity
  8
draw
  6
ByBlock
 62
    0
370
   -2
100
AcDbLine
 10
91.875
 20
230
 11
159.7757960182783
 21
230
  0
ENDBLK
  5
5F
330
5D
100
AcDbEntity
  8
0
100
AcDbBlockEnd
  0
BLOCK
  5
61
330
60
100
AcDbEntity
  8
0
100
AcDbBlockBegin
  2
*D18
 70
    1
 10
0
 20
0
  3
*D18
  1

  0
LINE
  5
AB
100
AcDbEntity
  8
draw
  6
ByBlock
 62
    0
370
   -2
100
AcDbLine
 10
20
 20
-160
 11
120
 21
-160
  0
MTEXT
  5
AC
100
AcDbEntity
  8
draw
  6
CONTINUOUS
 62
    0
370
   -2
100
AcDbMText
 10
70
 20
-154.375
 30
0
 40
7.5
 41
13.33333333333334
 71
    5
 72
    1
  1
100
  7
standard
210
0
220
0
230
1
 50
0
 73
    2
 44
1
  0
SOLID
  5
AD
100
AcDbEntity
  8
draw
  6
ByBlock
 62
    0
370
   -2
100
AcDbTrace
 10
20
 20
-160
 30
0
 11
32
 21
-158.0018336426904
 31
0
 12
32
 22
-161.9981663573096
 32
0
 13
32
 23
-161.9981663573096
 33
0
  0
SOLID
  5
AE
100
AcDbEntity
  8
draw
  6
ByBlock
 62
    0
370
   -2
100
AcDbTrace
 10
120
 20
-160
 30
0
 11
108
 21
-161.9981663573096
 31
0
 12
108
 22
-158.0018336426904
 32
0
 13
108
 23
-158.0018336426904
 33
0
  0
LINE
  5
AF
100
AcDbEntity
  8
draw
  6
ByBlock
 62
    0
370
   -2
100
AcDbLine
 10
19.99999999999999
 20
-97.875
 11
20
 21
-163.75
  0
LINE
  5
B0
100
AcDbEntity
  8
draw
  6
ByBlock
 62
    0
370
   -2
100
AcDbLine
 10
120
 20
-71.875
 11
120
 21
-163.75
  0
ENDBLK
  5
62
330
60
100
AcDbEntity
  8
0
100
AcDbBlockEnd
  0
BLOCK
  5
64
330
63
100
AcDbEntity
  8
0
100
AcDbBlockBegin
  2
*D19
 70
    1
 10
0
 20
0
  3
*D19
  1

  0
LINE
  5
B1
100
AcDbEntity
  8
draw
  6
CONTINUOUS
 62
    7
370
    0
100
AcDbLine
 10
20
 20
-61
 11
90
 21
20
  0
LINE
  5
B2
100
AcDbEntity
  8
draw
  6
CONTINUOUS
 62
    7
370
    0
100
AcDbLine
 10
90
 20
20
 11
160
 21
30
  0
SOLID
  5
B3
100
AcDbEntity
  8
draw
  6
CONTINUOUS
 62
    7
370
    0
100
AcDbTrace
 10
20
 20
-61
 30
0
 11
26.33451786425539
 21
-50.61411764851375
 31
0
 12
29.35819489515102
 22
-53.22717187274455
 32
0
 13
29.35819489515102
 23
-53.22717187274455
 33
0
  0
ENDBLK
  5
65
330
63
100
AcDbEntity
  8
0
100
AcDbBlockEnd
  0
BLOCK
  5
67
330
66
100
AcDbEntity
  8
0
100
AcDbBlockBegin
  2
*D11
 70
    1
 10
0
 20
0
  3
*D11
  1

  0
LINE
  5
B4
100
AcDbEntity
  8
draw
  6
ByBlock
 62
    0
370
   -2
100
AcDbLine
 10
-30
 20
324
 11
-30
 21
273.12
  0
MTEXT
  5
B5
100
AcDbEntity
  8
draw
  6
CONTINUOUS
 62
    0
370
   -2
100
AcDbMText
 10
-35.625
 20
310.8333333333333
 30
0
 40
7.5
 41
17.91666666666667
 71
    5
 72
    1
  1
2,88
  7
standard
210
0
220
0
230
1
 50
90
 73
    2
 44
1
  0
SOLID
  5
B6
100
AcDbEntity
  8
draw
  6
ByBlock
 62
    0
370
   -2
100
AcDbTrace
 10
-30
 20
300
 30
0
 11
-31.99816635730963
 21
312
 31
0
 12
-28.00183364269036
 22
312
 32
0
 13
-28.00183364269036
 23
312
 33
0
  0
SOLID
  5
B7
100
AcDbEntity
  8
draw
  6
ByBlock
 62
    0
370
   -2
100
AcDbTrace
 10
-30
 20
297.12
 30
0
 11
-28.00183364269036
 21
285.12
 31
0
 12
-31.99816635730964
 22
285.12
 32
0
 13
-31.99816635730964
 23
285.12
 33
0
  0
LINE
  5
B8
100
AcDbEntity
  8
draw
  6
ByBlock
 62
    0
370
   -2
100
AcDbLine
 10
18.12500000000002
 20
300
 11
-33.75
 21
300
  0
LINE
  5
B9
100
AcDbEntity
  8
draw
  6
ByBlock
 62
    0
370
   -2
100
AcDbLine
 10
14.79166666666669
 20
297.12
 11
-33.75
 21
297.12
  0
ENDBLK
  5
68
330
66
100
AcDbEntity
  8
0
100
AcDbBlockEnd
  0
BLOCK
  5
6A
330
69
100
AcDbEntity
  8
0
100
AcDbBlockBegin
  2
*D4
 70
    1
 10
0
 20
0
  3
*D4
  1

  0
LINE
  5
BA
100
AcDbEntity
  8
draw
  6
ByBlock
 62
    0
370
   -2
100
AcDbLine
 10
127.6047402379971
 20
304
 11
127.6047402379971
 21
246
  0
MTEXT
  5
BB
100
AcDbEntity
  8
draw
  6
CONTINUOUS
 62
    0
370
   -2
100
AcDbMText
 10
121.9797402379971
 20
275
 30
0
 40
7.5
 41
7.5
 71
    5
 72
    1
  1
10
  7
standard
210
0
220
0
230
1
 50
90
 73
    2
 44
1
  0
SOLID
  5
BC
100
AcDbEntity
  8
draw
  6
ByBlock
 62
    0
370
   -2
100
AcDbTrace
 10
127.6047402379971
 20
280
 30
0
 11
125.6065738806875
 21
292
 31
0
 12
129.6029065953068
 22
292
 32
0
 13
129.6029065953068
 23
292
 33
0
  0
SOLID
  5
BD
100
AcDbEntity
  8
draw
  6
ByBlock
 62
    0
370
   -2
100
AcDbTrace
 10
127.6047402379971
 20
270
 30
0
 11
129.6029065953068
 21
258
 31
0
 12
125.6065738806875
 22
258
 32
0
 13
125.6065738806875
 23
258
 33
0
  0
LINE
  5
BE
100
AcDbEntity
  8
draw
  6
ByBlock
 62
    0
370
   -2
100
AcDbLine
 10
111.875
 20
280
 11
131.3547402379971
 21
280
  0
LINE
  5
BF
100
AcDbEntity
  8
draw
  6
ByBlock
 62
    0
370
   -2
100
AcDbLine
 10
111.875
 20
270
 11
131.3547402379971
 21
270
  0
ENDBLK
  5
6B
330
69
100
AcDbEntity
  8
0
100
AcDbBlockEnd
  0
BLOCK
  5
6D
330
6C
100
AcDbEntity
  8
0
100
AcDbBlockBegin
  2
*D15
 70
    1
 10
0
 20
0
  3
*D15
  1

  0
LINE
  5
C0
100
AcDbEntity
  8
draw
  6
ByBlock
 62
    0
370
   -2
100
AcDbLine
 10
16
 20
310
 11
84
 21
310
  0
MTEXT
  5
C1
100
AcDbEntity
  8
draw
  6
CONTINUOUS
 62
    0
370
   -2
100
AcDbMText
 10
50
 20
315.625
 30
0
 40
7.5
 41
9.166666666666668
 71
    5
 72
    1
  1
20
  7
standard
210
0
220
0
230
1
 50
0
 73
    2
 44
1
  0
SOLID
  5
C2
100
AcDbEntity
  8
draw
  6
ByBlock
 62
    0
370
   -2
100
AcDbTrace
 10
40
 20
310
 30
0
 11
28
 21
308.0018336426904
 31
0
 12
28
 22
311.9981663573096
 32
0
 13
28
 23
311.9981663573096
 33
0
  0
SOLID
  5
C3
100
AcDbEntity
  8
draw
  6
ByBlock
 62
    0
370
   -2
100
AcDbTrace
 10
60
 20
310
 30
0
 11
72
 21
311.9981663573096
 31
0
 12
72
 22
308.0018336426904
 32
0
 13
72
 23
308.0018336426904
 33
0
  0
LINE
  5
C4
100
AcDbEntity
  8
draw
  6
ByBlock
 62
    0
370
   -2
100
AcDbLine
 10
40
 20
281.875
 11
40
 21
313.75
  0
LINE
  5
C5
100
AcDbEntity
  8
draw
  6
ByBlock
 62
    0
370
   -2
100
AcDbLine
 10
60
 20
271.875
 11
60
 21
313.75
  0
ENDBLK
  5
6E
330
6C
100
AcDbEntity
  8
0
100
AcDbBlockEnd
  0
BLOCK
  5
70
330
6F
100
AcDbEntity
  8
0
100
AcDbBlockBegin
  2
*D8
 70
    1
 10
0
 20
0
  3
*D8
  1

  0
LINE
  5
C6
100
AcDbEntity
  8
draw
  6
ByBlock
 62
    0
370
   -2
100
AcDbLine
 10
188.507002624314
 20
280
 11
188.507002624314
 21
202
  0
MTEXT
  5
C7
100
AcDbEntity
  8
draw
  6
CONTINUOUS
 62
    0
370
   -2
100
AcDbMText
 10
182.882002624314
 20
241
 30
0
 40
7.5
 41
9.166666666666668
 71
    5
 72
    1
  1
78
  7
standard
210
0
220
0
230
1
 50
90
 73
    2
 44
1
  0
SOLID
  5
C8
100
AcDbEntity
  8
draw
  6
ByBlock
 62
    0
370
   -2
100
AcDbTrace
 10
188.507002624314
 20
280
 30
0
 11
190.5051689816236
 21
268
 31
0
 12
186.5088362670043
 22
268
 32
0
 13
186.5088362670043
 23
268
 33
0
  0
SOLID
  5
C9
100
AcDbEntity
  8
draw
  6
ByBlock
 62
    0
370
   -2
100
AcDbTrace
 10
188.507002624314
 20
202
 30
0
 11
186.5088362670043
 21
214
 31
0
 12
190.5051689816236
 22
214
 32
0
 13
190.5051689816236
 23
214
 33
0
  0
LINE
  5
CA
100
AcDbEntity
  8
draw
  6
ByBlock
 62
    0
370
   -2
100
AcDbLine
 10
110.875
 20
280
 11
192.257002624314
 21
280
  0
LINE
  5
CB
100
AcDbEntity
  8
draw
  6
ByBlock
 62
    0
370
   -2
100
AcDbLine
 10
73.875
 20
202
 11
192.257002624314
 21
202
  0
ENDBLK
  5
71
330
6F
100
AcDbEntity
  8
0
100
AcDbBlockEnd
  0
BLOCK
  5
73
330
72
100
AcDbEntity
  8
0
100
AcDbBlockBegin
  2
*D10
 70
    1
 10
0
 20
0
  3
*D10
  1

  0
LINE
  5
CC
100
AcDbEntity
  8
draw
  6
ByBlock
 62
    0
370
   -2
100
AcDbLine
 10
218.0881014976678
 20
280
 11
218.0881014976678
 21
172
  0
MTEXT
  5
CD
100
AcDbEntity
  8
draw
  6
CONTINUOUS
 62
    0
370
   -2
100
AcDbMText
 10
212.4631014976678
 20
226
 30
0
 40
7.5
 41
13.33333333333334
 71
    5
 72
    1
  1
108
  7
standard
210
0
220
0
230
1
 50
90
 73
    2
 44
1
  0
SOLID
  5
CE
100
AcDbEntity
  8
draw
  6
ByBlock
 62
    0
370
   -2
100
AcDbTrace
 10
218.0881014976678
 20
280
 30
0
 11
220.0862678549775
 21
268
 31
0
 12
216.0899351403582
 22
268
 32
0
 13
216.0899351403582
 23
268
 33
0
  0
SOLID
  5
CF
100
AcDbEntity
  8
draw
  6
ByBlock
 62
    0
370
   -2
100
AcDbTrace
 10
218.0881014976678
 20
172
 30
0
 11
216.0899351403582
 21
184
 31
0
 12
220.0862678549775
 22
184
 32
0
 13
220.0862678549775
 23
184
 33
0
  0
LINE
  5
D0
100
AcDbEntity
  8
draw
  6
ByBlock
 62
    0
370
   -2
100
AcDbLine
 10
110.875
 20
280
 11
221.8381014976678
 21
280
  0
LINE
  5
D1
100
AcDbEntity
  8
draw
  6
ByBlock
 62
    0
370
   -2
100
AcDbLine
 10
95.875
 20
172
 11
221.8381014976678
 21
172
  0
ENDBLK
  5
74
330
72
100
AcDbEntity
  8
0
100
AcDbBlockEnd
  0
BLOCK
  5
76
330
75
100
AcDbEntity
  8
0
100
AcDbBlockBegin
  2
*D17
 70
    1
 10
0
 20
0
  3
*D17
  1

  0
LINE
  5
D2
100
AcDbEntity
  8
draw
  6
ByBlock
 62
    0
370
   -2
100
AcDbLine
 10
60
 20
330
 11
110
 21
330
  0
MTEXT
  5
D3
100
AcDbEntity
  8
draw
  6
CONTINUOUS
 62
    0
370
   -2
100
AcDbMText
 10
85
 20
335.625
 30
0
 40
7.5
 41
9.166666666667133
 71
    5
 72
    1
  1
50
  7
standard
210
0
220
0
230
1
 50
0
 73
    2
 44
1
  0
SOLID
  5
D4
100
AcDbEntity
  8
draw
  6
ByBlock
 62
    0
370
   -2
100
AcDbTrace
 10
60
 20
330
 30
0
 11
72
 21
331.9981663573096
 31
0
 12
72
 22
328.0018336426904
 32
0
 13
72
 23
328.0018336426904
 33
0
  0
SOLID
  5
D5
100
AcDbEntity
  8
draw
  6
ByBlock
 62
    0
370
   -2
100
AcDbTrace
 10
110
 20
330
 30
0
 11
98
 21
328.0018336426904
 31
0
 12
98
 22
331.9981663573096
 32
0
 13
98
 23
331.9981663573096
 33
0
  0
LINE
  5
D6
100
AcDbEntity
  8
draw
  6
ByBlock
 62
    0
370
   -2
100
AcDbLine
 10
60
 20
271.875
 11
60
 21
333.75
  0
LINE
  5
D7
100
AcDbEntity
  8
draw
  6
ByBlock
 62
    0
370
   -2
100
AcDbLine
 10
110
 20
271.875
 11
110
 21
333.75
  0
ENDBLK
  5
77
330
75
100
AcDbEntity
  8
0
100
AcDbBlockEnd
  0
BLOCK
  5
79
330
78
100
AcDbEntity
  8
0
100
AcDbBlockBegin
  2
*D7
 70
    1
 10
0
 20
0
  3
*D7
  1

  0
LINE
  5
D8
100
AcDbEntity
  8
draw
  6
ByBlock
 62
    0
370
   -2
100
AcDbLine
 10
170.5263346816871
 20
280
 11
170.5263346816871
 21
214
  0
MTEXT
  5
D9
100
AcDbEntity
  8
draw
  6
CONTINUOUS
 62
    0
370
   -2
100
AcDbMText
 10
164.9013346816871
 20
247
 30
0
 40
7.5
 41
9.166666666667597
 71
    5
 72
    1
  1
66
  7
standard
210
0
220
0
230
1
 50
90
 73
    2
 44
1
  0
SOLID
  5
DA
100
AcDbEntity
  8
draw
  6
ByBlock
 62
    0
370
   -2
100
AcDbTrace
 10
170.5263346816871
 20
280
 30
0
 11
172.5245010389967
 21
268
 31
0
 12
168.5281683243774
 22
268
 32
0
 13
168.5281683243774
 23
268
 33
0
  0
SOLID
  5
DB
100
AcDbEntity
  8
draw
  6
ByBlock
 62
    0
370
   -2
100
AcDbTrace
 10
170.5263346816871
 20
214
 30
0
 11
168.5281683243774
 21
226
 31
0
 12
172.5245010389967
 22
226
 32
0
 13
172.5245010389967
 23
226
 33
0
  0
LINE
  5
DC
100
AcDbEntity
  8
draw
  6
ByBlock
 62
    0
370
   -2
100
AcDbLine
 10
113.125
 20
280
 11
174.2763346816871
 21
280
  0
LINE
  5
DD
100
AcDbEntity
  8
draw
  6
ByBlock
 62
    0
370
   -2
100
AcDbLine
 10
73.875
 20
214
 11
174.2763346816871
 21
214
  0
ENDBLK
  5
7A
330
78
100
AcDbEntity
  8
0
100
AcDbBlockEnd
  0
BLOCK
  5
7C
330
7B
100
AcDbEntity
  8
0
100
AcDbBlockBegin
  2
*D5
 70
    1
 10
0
 20
0
  3
*D5
  1

  0
LINE
  5
DE
100
AcDbEntity
  8
draw
  6
ByBlock
 62
    0
370
   -2
100
AcDbLine
 10
140.3652142617969
 20
280
 11
140.3652142617969
 21
250
  0
MTEXT
  5
DF
100
AcDbEntity
  8
draw
  6
CONTINUOUS
 62
    0
370
   -2
100
AcDbMText
 10
134.7402142617969
 20
265
 30
0
 40
7.5
 41
9.166666666667133
 71
    5
 72
    1
  1
30
  7
standard
210
0
220
0
230
1
 50
90
 73
    2
 44
1
  0
SOLID
  5
E0
100
AcDbEntity
  8
draw
  6
ByBlock
 62
    0
370
   -2
100
AcDbTrace
 10
140.3652142617969
 20
280
 30
0
 11
142.3633806191065
 21
268
 31
0
 12
138.3670479044872
 22
268
 32
0
 13
138.3670479044872
 23
268
 33
0
  0
SOLID
  5
E1
100
AcDbEntity
  8
draw
  6
ByBlock
 62
    0
370
   -2
100
AcDbTrace
 10
140.3652142617969
 20
250
 30
0
 11
138.3670479044872
 21
262
 31
0
 12
142.3633806191065
 22
262
 32
0
 13
142.3633806191065
 23
262
 33
0
  0
LINE
  5
E2
100
AcDbEntity
  8
draw
  6
ByBlock
 62
    0
370
   -2
100
AcDbLine
 10
110.875
 20
280
 11
144.1152142617969
 21
280
  0
LINE
  5
E3
100
AcDbEntity
  8
draw
  6
ByBlock
 62
    0
370
   -2
100
AcDbLine
 10
90.875
 20
250
 11
144.1152142617969
 21
250
  0
ENDBLK
  5
7D
330
7B
100
AcDbEntity
  8
0
100
AcDbBlockEnd
  0
BLOCK
  5
7F
330
7E
100
AcDbEntity
  8
0
100
AcDbBlockBegin
  2
*D16
 70
    1
 10
0
 20
0
  3
*D16
  1

  0
LINE
  5
E4
100
AcDbEntity
  8
draw
  6
ByBlock
 62
    0
370
   -2
100
AcDbLine
 10
40
 20
330
 11
0
 21
330
  0
MTEXT
  5
E5
100
AcDbEntity
  8
draw
  6
CONTINUOUS
 62
    0
370
   -2
100
AcDbMText
 10
20
 20
335.625
 30
0
 40
7.5
 41
10
 71
    5
 72
    1
  1
40
  7
standard
210
0
220
0
230
1
 50
0
 73
    2
 44
1
  0
SOLID
  5
E6
100
AcDbEntity
  8
draw
  6
ByBlock
 62
    0
370
   -2
100
AcDbTrace
 10
40
 20
330
 30
0
 11
28
 21
328.0018336426904
 31
0
 12
28
 22
331.9981663573096
 32
0
 13
28
 23
331.9981663573096
 33
0
  0
SOLID
  5
E7
100
AcDbEntity
  8
draw
  6
ByBlock
 62
    0
370
   -2
100
AcDbTrace
 10
0
 20
330
 30
0
 11
12
 21
331.9981663573096
 31
0
 12
12
 22
328.0018336426904
 32
0
 13
12
 23
328.0018336426904
 33
0
  0
LINE
  5
E8
100
AcDbEntity
  8
draw
  6
ByBlock
 62
    0
370
   -2
100
AcDbLine
 10
40
 20
281.875
 11
40
 21
333.75
  0
LINE
  5
E9
100
AcDbEntity
  8
draw
  6
ByBlock
 62
    0
370
   -2
100
AcDbLine
 10
1.148106374200644e-16
 20
281.875
 11
2.296212748401287e-16
 21
333.75
  0
ENDBLK
  5
80
330
7E
100
AcDbEntity
  8
0
100
AcDbBlockEnd
  0
BLOCK
  5
82
330
81
100
AcDbEntity
  8
0
100
AcDbBlockBegin
  2
*D12
 70
    1
 10
0
 20
0
  3
*D12
  1

  0
LINE
  5
EA
100
AcDbEntity
  8
draw
  6
ByBlock
 62
    0
370
   -2
100
AcDbLine
 10
-110
 20
324
 11
-110
 21
256
  0
MTEXT
  5
EB
100
AcDbEntity
  8
draw
  6
CONTINUOUS
 62
    0
370
   -2
100
AcDbMText
 10
-115.625
 20
290
 30
0
 40
7.5
 41
9.166666666666668
 71
    5
 72
    1
  1
20
  7
standard
210
0
220
0
230
1
 50
90
 73
    2
 44
1
  0
SOLID
  5
EC
100
AcDbEntity
  8
draw
  6
ByBlock
 62
    0
370
   -2
100
AcDbTrace
 10
-110
 20
300
 30
0
 11
-111.9981663573096
 21
312
 31
0
 12
-108.0018336426904
 22
312
 32
0
 13
-108.0018336426904
 23
312
 33
0
  0
SOLID
  5
ED
100
AcDbEntity
  8
draw
  6
ByBlock
 62
    0
370
   -2
100
AcDbTrace
 10
-110
 20
280
 30
0
 11
-108.0018336426904
 21
268
 31
0
 12
-111.9981663573096
 22
268
 32
0
 13
-111.9981663573096
 23
268
 33
0
  0
LINE
  5
EE
100
AcDbEntity
  8
draw
  6
ByBlock
 62
    0
370
   -2
100
AcDbLine
 10
28.125
 20
300
 11
-113.75
 21
300
  0
LINE
  5
EF
100
AcDbEntity
  8
draw
  6
ByBlock
 62
    0
370
   -2
100
AcDbLine
 10
28.125
 20
280
 11
-113.75
 21
280
  0
ENDBLK
  5
83
330
81
100
AcDbEntity
  8
0
100
AcDbBlockEnd
  0
BLOCK
  5
85
330
84
100
AcDbEntity
  8
0
100
AcDbBlockBegin
  2
*D9
 70
    1
 10
0
 20
0
  3
*D9
  1

  0
LINE
  5
F0
100
AcDbEntity
  8
draw
  6
ByBlock
 62
    0
370
   -2
100
AcDbLine
 10
203.5875628342591
 20
280
 11
203.5875628342591
 21
184
  0
MTEXT
  5
F1
100
AcDbEntity
  8
draw
  6
CONTINUOUS
 62
    0
370
   -2
100
AcDbMText
 10
197.9625628342591
 20
232
 30
0
 40
7.5
 41
9.166666666667597
 71
    5
 72
    1
  1
96
  7
standard
210
0
220
0
230
1
 50
90
 73
    2
 44
1
  0
SOLID
  5
F2
100
AcDbEntity
  8
draw
  6
ByBlock
 62
    0
370
   -2
100
AcDbTrace
 10
203.5875628342591
 20
280
 30
0
 11
205.5857291915687
 21
268
 31
0
 12
201.5893964769494
 22
268
 32
0
 13
201.5893964769494
 23
268
 33
0
  0
SOLID
  5
F3
100
AcDbEntity
  8
draw
  6
ByBlock
 62
    0
370
   -2
100
AcDbTrace
 10
203.5875628342591
 20
184
 30
0
 11
201.5893964769494
 21
196
 31
0
 12
205.5857291915687
 22
196
 32
0
 13
205.5857291915687
 23
196
 33
0
  0
LINE
  5
F4
100
AcDbEntity
  8
draw
  6
ByBlock
 62
    0
370
   -2
100
AcDbLine
 10
113.125
 20
280
 11
207.3375628342591
 21
280
  0
LINE
  5
F5
100
AcDbEntity
  8
draw
  6
ByBlock
 62
    0
370
   -2
100
AcDbLine
 10
95.875
 20
184
 11
207.3375628342591
 21
184
  0
ENDBLK
  5
86
330
84
100
AcDbEntity
  8
0
100
AcDbBlockEnd
  0
BLOCK
  5
88
330
87
100
AcDbEntity
  8
0
100
AcDbBlockBegin
  2
*D2
 70
    1
 10
0
 20
0
  3
*D2
  1

  0
LINE
  5
F6
100
AcDbEntity
  8
draw
  6
ByBlock
 62
    0
370
   -2
100
AcDbLine
 10
-109.0440507488339
 20
-140.9996831721617
 11
-109.0440507488339
 21
-96
  0
MTEXT
  5
F7
100
AcDbEntity
  8
draw
  6
CONTINUOUS
 62
    0
370
   -2
100
AcDbMText
 10
-114.6690507488339
 20
-118.4998415860809
 30
0
 40
7.5
 41
10.00000000000047
 71
    5
 72
    1
  1
45
  7
standard
210
0
220
0
230
1
 50
90
 73
    2
 44
1
  0
SOLID
  5
F8
100
AcDbEntity
  8
draw
  6
ByBlock
 62
    0
370
   -2
100
AcDbTrace
 10
-109.0440507488339
 20
-140.9996831721617
 30
0
 11
-111.0422171061435
 21
-128.9996831721617
 31
0
 12
-107.0458843915243
 22
-128.9996831721617
 32
0
 13
-107.0458843915243
 23
-128.9996831721617
 33
0
  0
SOLID
  5
F9
100
AcDbEntity
  8
draw
  6
ByBlock
 62
    0
370
   -2
100
AcDbTrace
 10
-109.0440507488339
 20
-96
 30
0
 11
-107.0458843915243
 21
-108
 31
0
 12
-111.0422171061435
 22
-108
 32
0
 13
-111.0422171061435
 23
-108
 33
0
  0
LINE
  5
FA
100
AcDbEntity
  8
draw
  6
ByBlock
 62
    0
370
   -2
100
AcDbLine
 10
18.42586879988237
 20
-140.9996831721617
 11
-112.7940507488339
 21
-140.9996831721617
  0
LINE
  5
FB
100
AcDbEntity
  8
draw
  6
ByBlock
 62
    0
370
   -2
100
AcDbLine
 10
18.12499999999999
 20
-96
 11
-112.7940507488339
 21
-96
  0
ENDBLK
  5
89
330
87
100
AcDbEntity
  8
0
100
AcDbBlockEnd
  0
ENDSEC
  0
SECTION
  2
ENTITIES
  0
HATCH
  5
FC
100
AcDbEntity
  8
draw
  6
ByLayer
 62
    7
370
   -1
100
AcDbHatch
 10
0
 20
0
 30
0
210
0
220
0
230
1
  2
SOLID
 70
    1
 71
    0
 91
    1
 92
    0
 93
    4
 72
    1
 10
10.00000000000002
 20
297.12
 11
20.00000000000002
 21
297.12
 72
    1
 10
20.00000000000002
 20
297.12
 11
20
 21
0
 72
    1
 10
20
 20
0
 11
10
 21
0
 72
    1
 10
10
 20
0
 11
10.00000000000002
 21
297.12
 97
    0
 75
    0
 76
    1
 98
    0
  0
LINE
  5
FD
100
AcDbEntity
  8
draw
  6
ByLayer
 62
    7
370
   -1
100
AcDbLine
 10
20
 20
0
 11
10
 21
0
  0
LINE
  5
FE
100
AcDbEntity
  8
draw
  6
ByLayer
 62
  256
370
   -3
100
AcDbLine
 10
40
 20
280
 11
20
 21
280
  0
LINE
  5
FF
100
AcDbEntity
  8
draw
  6
ByLayer
 62
  256
370
   35
100
AcDbLine
 10
10.00000000000002
 20
297.12
 11
20.00000000000002
 21
297.12
  0
DIMENSION
  5
100
100
AcDbEntity
  8
draw
  6
ByLayer
 62
  256
370
   -1
100
AcDbDimension
  2
*D1
 10
-133.984977249897
 20
-140.9973689736311
 30
0
 11
-139.609977249897
 21
-70.99868448681556
 31
0
 70
   32
 71
    5
  3
Standard
 53
0
210
0
220
0
230
1
100
AcDbAlignedDimension
 13
20
 23
-1.000000000000005
 33
0
 14
20.86701077991805
 24
-140.9973689736311
 34
0
 50
90
100
AcDbRotatedDimension
  0
DIMENSION
  5
101
100
AcDbEntity
  8
draw
  6
ByLayer
 62
  256
370
   -1
100
AcDbDimension
  2
*D2
 10
-109.0440507488339
 20
-95.99999999999999
 30
0
 11
-114.6690507488339
 21
-118.4998415860809
 31
0
 70
   32
 71
    5
  3
Standard
 53
0
210
0
220
0
230
1
100
AcDbAlignedDimension
 13
20.30086879988237
 23
-140.9996831721617
 33
0
 14
19.99999999999999
 24
-96
 34
0
 50
90
100
AcDbRotatedDimension
  0
DIMENSION
  5
102
100
AcDbEntity
  8
draw
  6
ByLayer
 62
  256
370
   -1
100
AcDbDimension
  2
*D3
 10
-134.5649987964333
 20
300
 30
0
 11
-140.1899987964333
 21
150
 31
0
 70
   32
 71
    5
  3
Standard
 53
0
210
0
220
0
230
1
100
AcDbAlignedDimension
 13
0
 23
0
 33
0
 14
1.83697019872103e-14
 24
300
 34
0
 50
90
100
AcDbRotatedDimension
  0
DIMENSION
  5
103
100
AcDbEntity
  8
draw
  6
ByLayer
 62
  256
370
   -1
100
AcDbDimension
  2
*D4
 10
127.6047402379971
 20
270
 30
0
 11
121.9797402379971
 21
275
 31
0
 70
   32
 71
    5
  3
Standard
 53
0
210
0
220
0
230
1
100
AcDbAlignedDimension
 13
110
 23
280
 33
0
 14
110
 24
270
 34
0
 50
90
100
AcDbRotatedDimension
  0
DIMENSION
  5
104
100
AcDbEntity
  8
draw
  6
ByLayer
 62
  256
370
   -1
100
AcDbDimension
  2
*D5
 10
140.3652142617969
 20
250
 30
0
 11
134.7402142617969
 21
265
 31
0
 70
   32
 71
    5
  3
Standard
 53
0
210
0
220
0
230
1
100
AcDbAlignedDimension
 13
109
 23
280
 33
0
 14
89
 24
250
 34
0
 50
90
100
AcDbRotatedDimension
  0
DIMENSION
  5
105
100
AcDbEntity
  8
draw
  6
ByLayer
 62
  256
370
   -1
100
AcDbDimension
  2
*D6
 10
156.0257960182783
 20
230
 30
0
 11
150.4007960182783
 21
255
 31
0
 70
   32
 71
    5
  3
Standard
 53
0
210
0
220
0
230
1
100
AcDbAlignedDimension
 13
110
 23
280
 33
0
 14
90
 24
230
 34
0
 50
90
100
AcDbRotatedDimension
  0
DIMENSION
  5
106
100
AcDbEntity
  8
draw
  6
ByLayer
 62
  256
370
   -1
100
AcDbDimension
  2
*D7
 10
170.5263346816871
 20
214
 30
0
 11
164.9013346816871
 21
247
 31
0
 70
   32
 71
    5
  3
Standard
 53
0
210
0
220
0
230
1
100
AcDbAlignedDimension
 13
111.25
 23
280
 33
0
 14
72
 24
214
 34
0
 50
90
100
AcDbRotatedDimension
  0
DIMENSION
  5
107
100
AcDbEntity
  8
draw
  6
ByLayer
 62
  256
370
   -1
100
AcDbDimension
  2
*D8
 10
188.507002624314
 20
202
 30
0
 11
182.882002624314
 21
241
 31
0
 70
   32
 71
    5
  3
Standard
 53
0
210
0
220
0
230
1
100
AcDbAlignedDimension
 13
109
 23
280
 33
0
 14
72
 24
202
 34
0
 50
90
100
AcDbRotatedDimension
  0
DIMENSION
  5
108
100
AcDbEntity
  8
draw
  6
ByLayer
 62
  256
370
   -1
100
AcDbDimension
  2
*D9
 10
203.5875628342591
 20
184
 30
0
 11
197.9625628342591
 21
232
 31
0
 70
   32
 71
    5
  3
Standard
 53
0
210
0
220
0
230
1
100
AcDbAlignedDimension
 13
111.25
 23
280
 33
0
 14
94
 24
184
 34
0
 50
90
100
AcDbRotatedDimension
  0
DIMENSION
  5
109
100
AcDbEntity
  8
draw
  6
ByLayer
 62
  256
370
   -1
100
AcDbDimension
  2
*D10
 10
218.0881014976678
 20
172
 30
0
 11
212.4631014976678
 21
226
 31
0
 70
   32
 71
    5
  3
Standard
 53
0
210
0
220
0
230
1
100
AcDbAlignedDimension
 13
109
 23
280
 33
0
 14
94
 24
172
 34
0
 50
90
100
AcDbRotatedDimension
  0
LINE
  5
10A
100
AcDbEntity
  8
draw
  6
CONTINUOUS
 62
  256
370
  100
100
AcDbLine
 10
0
 20
0
 11
1.83697019872103e-14
 21
300
  0
LINE
  5
10B
100
AcDbEntity
  8
draw
  6
CONTINUOUS
 62
  256
370
  100
100
AcDbLine
 10
110
 20
270
 11
60
 21
270
  0
LINE
  5
10C
100
AcDbEntity
  8
draw
  6
CONTINUOUS
 62
  256
370
  100
100
AcDbLine
 10
60
 20
250
 11
90
 21
250
  0
LINE
  5
10D
100
AcDbEntity
  8
draw
  6
CONTINUOUS
 62
  256
370
  100
100
AcDbLine
 10
90
 20
250
 11
90
 21
230
  0
LINE
  5
10E
100
AcDbEntity
  8
draw
  6
CONTINUOUS
 62
  256
370
  100
100
AcDbLine
 10
90
 20
230
 11
60
 21
230
  0
LINE
  5
10F
100
AcDbEntity
  8
draw
  6
CONTINUOUS
 62
  256
370
  100
100
AcDbLine
 10
60
 20
230
 11
60
 21
214
  0
LINE
  5
110
100
AcDbEntity
  8
draw
  6
CONTINUOUS
 62
  256
370
  100
100
AcDbLine
 10
60
 20
214
 11
72
 21
214
  0
LINE
  5
111
100
AcDbEntity
  8
draw
  6
CONTINUOUS
 62
  256
370
  100
100
AcDbLine
 10
72
 20
214
 11
72
 21
202
  0
LINE
  5
112
100
AcDbEntity
  8
draw
  6
CONTINUOUS
 62
  256
370
  100
100
AcDbLine
 10
72
 20
202
 11
60
 21
202
  0
LINE
  5
113
100
AcDbEntity
  8
draw
  6
CONTINUOUS
 62
  256
370
  100
100
AcDbLine
 10
60
 20
202
 11
60
 21
184
  0
LINE
  5
114
100
AcDbEntity
  8
draw
  6
CONTINUOUS
 62
  256
370
  100
100
AcDbLine
 10
60
 20
184
 11
94
 21
184
  0
LINE
  5
115
100
AcDbEntity
  8
draw
  6
CONTINUOUS
 62
  256
370
  100
100
AcDbLine
 10
94
 20
184
 11
94
 21
172
  0
LINE
  5
116
100
AcDbEntity
  8
draw
  6
CONTINUOUS
 62
  256
370
  100
100
AcDbLine
 10
94
 20
172
 11
40
 21
172
  0
LINE
  5
117
100
AcDbEntity
  8
draw
  6
CONTINUOUS
 62
  256
370
  100
100
AcDbLine
 10
110
 20
270
 11
110
 21
280
  0
LINE
  5
118
100
AcDbEntity
  8
draw
  6
CONTINUOUS
 62
  256
370
  100
100
AcDbLine
 10
40
 20
290
 11
39.99999999999999
 21
0
  0
LINE
  5
119
100
AcDbEntity
  8
draw
  6
CONTINUOUS
 62
  256
370
  100
100
AcDbLine
 10
60
 20
270
 11
60
 21
250
  0
ARC
  5
11A
100
AcDbEntity
  8
draw
  6
CONTINUOUS
 62
  256
370
  100
100
AcDbCircle
 10
30.00000000000002
 20
290
 40
10
100
AcDbArc
 50
270
 51
90
  0
LINE
  5
11B
100
AcDbEntity
  8
draw
  6
CONTINUOUS
 62
  256
370
  100
100
AcDbLine
 10
110
 20
280
 11
40
 21
280
  0
CIRCLE
  5
11C
100
AcDbEntity
  8
draw
  6
CONTINUOUS
 62
  256
370
  100
100
AcDbCircle
 10
19.99999999999999
 20
-96
 40
35
  0
ELLIPSE
  5
11D
100
AcDbEntity
  8
draw
  6
CONTINUOUS
 62
  256
370
  100
100
AcDbEllipse
 10
19.99999999999999
 20
-71
 30
0
 11
-100
 21
-2.089831575764999e-14
 31
0
 40
0.6999999999999997
 41
0
 42
6.283185307179586
  0
LINE
  5
11E
100
AcDbEntity
  8
draw
  6
CONTINUOUS
 62
    7
370
  100
100
AcDbLine
 10
20.00000000000002
 20
297.12
 11
20.00000000000002
 21
300
  0
LINE
  5
11F
100
AcDbEntity
  8
draw
  6
CONTINUOUS
 62
  256
370
  100
100
AcDbLine
 10
10.00000000000002
 20
300
 11
10.00000000000002
 21
297.12
  0
LINE
  5
120
100
AcDbEntity
  8
draw
  6
CONTINUOUS
 62
  256
370
  100
100
AcDbLine
 10
20.00000000000002
 20
300
 11
30.00000000000002
 21
300
  0
LINE
  5
121
100
AcDbEntity
  8
draw
  6
CONTINUOUS
 62
  256
370
  100
100
AcDbLine
 10
1.83697019872103e-14
 20
300
 11
10.00000000000002
 21
300
  0
LINE
  5
122
100
AcDbEntity
  8
draw
  6
CONTINUOUS
 62
  256
370
  100
100
AcDbLine
 10
10.00000000000002
 20
297.12
 11
10
 21
0
  0
LINE
  5
123
100
AcDbEntity
  8
draw
  6
CONTINUOUS
 62
    7
370
  100
100
AcDbLine
 10
20.00000000000002
 20
297.12
 11
20
 21
-1
  0
DIMENSION
  5
124
100
AcDbEntity
  8
draw
  6
ByLayer
 62
  256
370
   -1
100
AcDbDimension
  2
*D11
 10
-30
 20
297.12
 30
0
 11
-35.625
 21
298.56
 31
0
 70
   32
 71
    5
  3
Standard
 53
0
210
0
220
0
230
1
100
AcDbAlignedDimension
 13
20.00000000000002
 23
300
 33
0
 14
16.66666666666669
 24
297.12
 34
0
 50
90
100
AcDbRotatedDimension
  0
DIMENSION
  5
125
100
AcDbEntity
  8
draw
  6
ByLayer
 62
  256
370
   -1
100
AcDbDimension
  2
*D12
 10
-110
 20
280
 30
0
 11
-115.625
 21
290
 31
0
 70
   32
 71
    5
  3
Standard
 53
0
210
0
220
0
230
1
100
AcDbAlignedDimension
 13
30
 23
300
 33
0
 14
30
 24
280
 34
0
 50
90
100
AcDbRotatedDimension
  0
DIMENSION
  5
126
100
AcDbEntity
  8
draw
  6
ByLayer
 62
  256
370
   -1
100
AcDbDimension
  2
*D13
 10
10
 20
310
 30
0
 11
5
 21
315.625
 31
0
 70
   32
 71
    5
  3
Standard
 53
0
210
0
220
0
230
1
100
AcDbAlignedDimension
 13
0
 23
300
 33
0
 14
10
 24
300
 34
0
100
AcDbRotatedDimension
  0
DIMENSION
  5
127
100
AcDbEntity
  8
draw
  6
ByLayer
 62
  256
370
   -1
100
AcDbDimension
  2
*D14
 10
20
 20
310
 30
0
 11
15
 21
315.625
 31
0
 70
   32
 71
    5
  3
Standard
 53
0
210
0
220
0
230
1
100
AcDbAlignedDimension
 13
10
 23
290
 33
0
 14
20
 24
290
 34
0
100
AcDbRotatedDimension
  0
DIMENSION
  5
128
100
AcDbEntity
  8
draw
  6
ByLayer
 62
  256
370
   -1
100
AcDbDimension
  2
*D15
 10
60
 20
310
 30
0
 11
50
 21
315.625
 31
0
 70
   32
 71
    5
  3
Standard
 53
0
210
0
220
0
230
1
100
AcDbAlignedDimension
 13
40
 23
280
 33
0
 14
60
 24
270
 34
0
100
AcDbRotatedDimension
  0
DIMENSION
  5
129
100
AcDbEntity
  8
draw
  6
ByLayer
 62
  256
370
   -1
100
AcDbDimension
  2
*D16
 10
3.061616997868383e-15
 20
330
 30
0
 11
20
 21
335.625
 31
0
 70
   32
 71
    5
  3
Standard
 53
0
210
0
220
0
230
1
100
AcDbAlignedDimension
 13
40
 23
280
 33
0
 14
0
 24
280
 34
0
100
AcDbRotatedDimension
  0
DIMENSION
  5
12A
100
AcDbEntity
  8
draw
  6
ByLayer
 62
  256
370
   -1
100
AcDbDimension
  2
*D17
 10
110
 20
330
 30
0
 11
85
 21
335.625
 31
0
 70
   32
 71
    5
  3
Standard
 53
0
210
0
220
0
230
1
100
AcDbAlignedDimension
 13
60
 23
270
 33
0
 14
110
 24
270
 34
0
100
AcDbRotatedDimension
  0
DIMENSION
  5
12B
100
AcDbEntity
  8
draw
  6
ByLayer
 62
  256
370
   -1
100
AcDbDimension
  2
*D18
 10
120
 20
-160
 30
0
 11
70
 21
-154.375
 31
0
 70
   32
 71
    5
  3
Standard
 53
0
210
0
220
0
230
1
100
AcDbAlignedDimension
 13
19.99999999999999
 23
-96
 33
0
 14
120
 24
-70
 34
0
100
AcDbRotatedDimension
  0
LEADER
  5
12C
100
AcDbEntity
  8
draw
  6
ByLayer
 62
  256
370
   -1
100
AcDbLeader
  3
Standard
 71
    1
 72
    0
 73
    3
 74
    0
 75
    0
 40
1
 41
10
 76
3
 76
3
 10
20
 20
-61
 30
0
 10
90
 20
20
 30
0
 10
160
 20
30
 30
0
  0
MTEXT
  5
12D
100
AcDbEntity
  8
draw
  6
ByLayer
 62
  256
370
   -1
100
AcDbMText
 10
110
 20
30
 30
0
 40
5
 41
11.11111111111111
 71
    2
 72
    1
  1
%%C70
  7

210
0
220
0
230
1
 50
0
 73
    2
 44
1
  0
LEADER
  5
12E
100
AcDbEntity
  8
draw
  6
ByLayer
 62
  256
370
   -1
100
AcDbLeader
  3
Standard
 71
    1
 72
    0
 73
    3
 74
    0
 75
    0
 40
1
 41
10
 76
3
 76
3
 10
30.00000000000002
 20
290
 30
0
 10
30
 20
140
 30
0
 10
140
 20
140
 30
0
  0
MTEXT
  5
12F
100
AcDbEntity
  8
draw
  6
ByLayer
 62
  256
370
   -1
100
AcDbMText
 10
110
 20
150
 30
0
 40
5
 41
9.444444444444445
 71
    2
 72
    1
  1
R10
  7

210
0
220
0
230
1
 50
0
 73
    2
 44
1
  0
ENDSEC
  0
SECTION
  2
OBJECTS
  0
DICTIONARY
  5
C
330
0
100
AcDbDictionary
281
    1
  3
ACAD_GROUP
350
D
  0
DICTIONARY
  5
D
330
C
100
AcDbDictionary
281
    1
  0
PLOTSETTINGS
  5
130
100
AcDbPlotSettings
  6
1x1
 40
0
 41
0
 42
0
 43
0
  0
ENDSEC
  0
EOF
